<?xml version="1.0" standalone="no"?>
<!DOCTYPE svg PUBLIC "-//W3C//DTD SVG 20010904//EN"
 "http://www.w3.org/TR/2001/REC-SVG-20010904/DTD/svg10.dtd">
<svg version="1.0" xmlns="http://www.w3.org/2000/svg"
 width="459.000000pt" height="552.000000pt" viewBox="0 0 459.000000 552.000000"
 preserveAspectRatio="xMidYMid meet">

<g transform="translate(0.000000,552.000000) scale(0.100000,-0.100000)"
fill="#000000" stroke="none">
<path d="M1695 5443 c-27 -8 -56 -20 -62 -25 -20 -16 -15 -56 9 -89 18 -24 20
-34 12 -57 -16 -44 0 -134 27 -152 59 -38 80 -83 60 -126 -6 -13 -31 -39 -56
-56 -27 -19 -48 -43 -51 -58 -10 -45 -25 -66 -67 -94 -38 -25 -48 -27 -99 -21
-55 6 -57 5 -97 -33 -23 -21 -41 -46 -41 -55 0 -15 31 -86 71 -160 11 -21 19
-41 16 -43 -2 -3 -33 -9 -68 -15 -38 -6 -69 -17 -76 -26 -18 -24 -16 -108 3
-146 50 -99 123 -123 237 -78 48 19 50 16 43 -61 -3 -40 -9 -120 -12 -178 -6
-99 -5 -109 21 -170 15 -36 48 -126 72 -200 24 -74 58 -158 74 -186 19 -34 29
-65 29 -93 0 -31 12 -62 47 -124 80 -142 91 -157 117 -157 62 0 225 254 255
398 6 30 8 83 5 122 -9 98 -3 115 64 156 31 20 111 92 178 159 66 67 134 130
150 138 35 18 110 96 148 154 26 39 29 40 69 36 85 -10 87 41 11 254 -41 115
-54 139 -79 155 -42 26 -146 55 -242 68 -105 14 -165 32 -231 71 -41 23 -52
34 -47 47 28 65 29 73 19 90 -6 9 -29 23 -50 30 -21 7 -49 24 -61 38 -42 47
-27 173 33 278 13 23 24 49 24 58 0 30 -40 48 -107 48 -59 0 -70 4 -166 60
-57 33 -110 60 -118 59 -8 0 -36 -7 -64 -16z m170 -123 c82 -47 113 -60 146
-60 35 0 40 -2 34 -17 -81 -193 -71 -310 31 -372 30 -18 42 -31 37 -41 -3 -8
-8 -29 -10 -46 -4 -28 1 -35 46 -69 73 -53 172 -92 271 -105 91 -12 185 -34
225 -52 21 -10 50 -61 70 -125 l6 -23 -329 0 c-284 0 -331 -2 -342 -15 -10
-12 -10 -21 -2 -40 l12 -25 349 0 349 0 4 -25 c5 -22 2 -25 -24 -25 -33 0 -63
-27 -118 -110 -19 -29 -55 -65 -80 -81 -25 -16 -104 -88 -176 -159 l-132 -130
-296 0 -296 0 -16 38 c-16 38 -16 45 2 317 6 83 4 92 -16 118 -26 32 -43 33
-110 7 -72 -28 -114 -26 -139 6 -12 15 -21 31 -21 35 0 5 133 10 296 11 270 3
298 5 308 21 8 12 8 22 0 35 -10 15 -36 18 -239 22 -195 4 -226 7 -212 19 24
20 21 51 -11 102 -30 46 -65 139 -57 147 3 3 31 6 63 6 47 1 68 7 112 34 53
32 110 98 110 125 0 8 18 28 40 46 45 36 80 96 80 137 0 35 -47 120 -77 140
-24 15 -25 19 -19 82 5 49 3 74 -8 94 -13 25 -13 27 7 31 12 2 23 5 25 6 2 0
50 -26 107 -59z m227 -1737 c-4 -155 -17 -199 -93 -325 -41 -68 -59 -83 -59
-51 0 9 -7 24 -15 33 -9 10 -20 44 -25 76 -5 32 -25 90 -44 129 -19 38 -48
111 -63 160 -15 50 -31 92 -35 93 -5 2 -8 8 -8 13 0 5 75 9 173 9 l172 0 -3
-137z"/>
<path d="M1916 4207 c-62 -35 -81 -68 -81 -142 0 -68 15 -99 68 -139 41 -30
122 -32 172 -4 45 26 85 93 85 144 0 51 -40 115 -90 141 -54 29 -104 29 -154
0z m123 -62 c81 -41 56 -160 -36 -172 -37 -5 -46 -2 -73 25 -79 79 9 199 109
147z"/>
<path d="M1970 4085 c-18 -22 -8 -50 19 -50 32 0 49 28 32 49 -17 20 -35 20
-51 1z"/>
<path d="M3009 4823 c-49 -48 -89 -93 -89 -100 0 -21 -64 -16 -105 8 -34 21
-37 21 -55 4 -28 -25 -26 -34 20 -98 22 -30 40 -60 40 -65 0 -5 9 -21 21 -36
17 -22 28 -26 71 -26 46 0 50 -2 45 -21 -8 -29 60 -197 83 -209 10 -6 25 -8
32 -5 10 4 13 -4 10 -35 -4 -37 -17 -53 -156 -193 -83 -83 -197 -195 -253
-247 -75 -71 -118 -121 -167 -198 -156 -241 -317 -608 -375 -855 -14 -61 -20
-72 -37 -70 -10 1 -109 23 -219 48 -339 78 -349 80 -409 66 -92 -20 -161 -78
-284 -235 -12 -16 -25 -27 -28 -24 -3 3 -2 40 2 81 l7 76 86 67 c123 96 369
347 411 418 30 52 34 67 35 130 0 57 -5 79 -23 111 -42 71 -109 103 -180 83
-20 -6 -82 -45 -137 -87 -134 -103 -130 -101 -121 -60 23 109 26 154 16 206
-28 133 -172 202 -291 140 -40 -21 -74 -62 -136 -163 -11 -19 -12 -18 -51 3
-111 62 -251 21 -309 -91 -23 -45 -123 -471 -123 -525 0 -27 25 -156 56 -287
l56 -239 -5 -325 c-5 -336 -10 -388 -54 -553 l-26 -98 -46 -22 c-39 -19 -59
-42 -135 -154 -75 -111 -89 -139 -93 -180 -8 -94 -38 -68 609 -528 490 -348
485 -345 540 -345 95 0 115 18 236 218 35 57 52 98 57 134 7 50 11 55 164 207
86 86 200 197 252 246 99 94 172 193 253 345 50 92 56 128 28 153 -19 18 -59
22 -79 9 -6 -4 -33 -46 -59 -92 -112 -205 -172 -278 -351 -434 -57 -49 -142
-132 -189 -183 -55 -60 -92 -92 -101 -89 -8 3 -98 66 -201 139 -103 74 -313
223 -467 331 -154 109 -283 201 -288 205 -4 4 4 43 17 88 56 186 76 422 75
883 -1 313 6 367 62 526 74 211 307 661 361 699 30 20 61 19 89 -4 21 -17 24
-27 22 -83 -3 -120 -102 -342 -174 -393 -180 -124 -202 -163 -229 -397 -10
-90 -28 -237 -40 -327 -25 -202 -25 -224 -2 -244 22 -20 61 -22 85 -4 21 14
33 88 72 427 35 307 36 311 99 365 116 100 582 455 598 455 24 0 41 -37 35
-76 -3 -18 -20 -55 -38 -81 -43 -63 -223 -242 -324 -323 -109 -87 -144 -120
-162 -155 -12 -23 -18 -82 -25 -240 -9 -198 -11 -214 -38 -275 -80 -184 -79
-259 2 -260 37 0 55 22 74 88 59 210 314 580 423 613 36 11 66 5 338 -56 164
-37 304 -73 311 -80 23 -21 -10 -83 -55 -102 -54 -23 -221 -20 -344 6 -115 24
-164 16 -213 -34 -47 -49 -203 -316 -222 -381 -11 -40 -15 -80 -12 -134 7
-124 56 -202 163 -258 45 -25 60 -27 160 -27 102 0 114 2 168 29 70 36 139
100 196 184 40 59 58 95 140 277 18 38 40 78 49 88 28 31 91 59 139 60 37 2
48 -2 65 -22 16 -21 18 -33 12 -75 -6 -51 -61 -233 -106 -354 -21 -57 -22 -64
-8 -90 18 -31 64 -41 92 -20 23 17 93 203 127 338 19 75 31 105 42 103 7 -1
139 -30 292 -64 267 -60 281 -62 335 -51 83 17 138 57 226 162 44 52 83 96 87
98 4 2 5 -32 2 -75 -5 -72 -8 -80 -37 -103 -238 -191 -422 -378 -482 -490 -13
-25 -18 -56 -18 -105 0 -123 59 -195 160 -195 58 0 83 14 207 112 48 39 90 68
93 65 3 -3 -2 -40 -11 -82 -40 -180 30 -304 179 -313 104 -6 143 24 242 185
11 17 13 17 41 1 112 -65 262 -26 318 83 13 24 42 137 104 402 32 134 34 114
-64 537 -27 115 -27 115 -22 440 5 344 14 430 60 578 21 69 25 75 67 96 38 18
59 42 134 153 103 153 113 188 74 262 -20 38 -55 67 -233 193 -115 81 -218
148 -228 148 -24 0 -67 -44 -67 -68 0 -28 22 -47 229 -195 102 -73 186 -137
188 -143 2 -6 -29 -60 -69 -120 -52 -77 -80 -110 -96 -112 -15 -2 -59 23 -140
80 -64 47 -286 204 -493 351 -207 147 -380 274 -383 284 -6 16 11 49 101 191
20 31 41 52 52 52 9 0 98 -57 197 -127 217 -153 226 -158 256 -142 30 16 38
28 38 61 0 33 -22 51 -259 217 -171 119 -174 121 -228 121 -90 0 -112 -20
-224 -205 l-24 -40 -3 33 c-4 44 3 62 26 62 26 0 38 17 47 66 5 32 2 45 -10
58 -9 9 -20 16 -25 16 -16 0 -40 -31 -40 -52 0 -15 -5 -19 -20 -15 -26 7 -50
-17 -50 -49 0 -14 -4 -23 -8 -20 -5 3 -7 30 -4 60 4 53 3 56 -22 66 -15 5 -46
10 -70 10 -39 0 -66 13 -66 32 0 4 19 8 43 8 48 0 67 13 67 45 0 14 28 48 74
93 85 82 118 92 169 46 l29 -24 -32 -36 c-30 -34 -30 -37 -14 -55 9 -10 22
-19 28 -19 7 0 35 24 64 53 62 62 66 89 20 113 -18 9 -47 28 -64 40 -25 20
-43 24 -99 24 l-68 0 -88 -87z m199 -765 c74 -51 906 -640 915 -647 4 -4 -2
-34 -13 -67 -56 -161 -80 -428 -79 -877 0 -161 -5 -323 -11 -360 -11 -69 -58
-216 -105 -327 -71 -168 -251 -505 -298 -558 -25 -27 -67 -29 -98 -3 -49 39
-24 182 61 356 37 75 47 86 135 154 141 109 155 135 180 334 8 67 26 218 41
334 14 117 23 224 20 238 -12 47 -93 59 -115 17 -5 -9 -18 -98 -30 -197 -51
-420 -62 -499 -77 -526 -16 -31 -74 -79 -415 -342 -119 -92 -224 -167 -232
-167 -9 0 -21 9 -27 19 -18 34 -11 76 21 127 40 63 234 255 368 364 58 47 113
99 123 116 14 24 20 71 29 249 9 181 14 226 30 257 26 51 69 185 69 216 0 51
-62 81 -102 50 -9 -7 -30 -55 -47 -105 -49 -150 -106 -252 -227 -408 -82 -107
-153 -172 -196 -180 -24 -5 -90 6 -214 34 -98 23 -231 53 -294 68 -63 14 -122
32 -129 39 -24 22 10 81 57 101 52 23 229 20 345 -5 161 -35 189 -17 321 201
115 189 120 204 120 322 0 115 -13 152 -75 220 -52 57 -124 87 -221 93 -227
14 -361 -108 -517 -467 -23 -52 -49 -103 -58 -114 -29 -31 -92 -58 -140 -60
-37 -2 -48 2 -65 22 -16 21 -18 33 -12 75 35 262 317 860 483 1025 25 25 91
85 146 134 55 48 140 130 188 182 49 52 91 95 94 95 2 0 25 -14 51 -32z
m-2488 -648 c19 -19 19 -20 -65 -193 -47 -95 -103 -224 -124 -286 -22 -61 -42
-108 -45 -103 -3 5 -8 34 -11 63 -8 77 92 494 125 521 30 25 94 24 120 -2z
m2411 -366 c65 -37 95 -141 69 -234 -6 -19 -50 -100 -98 -180 l-89 -145 -39 1
c-21 0 -92 9 -156 18 -94 15 -132 17 -195 9 -43 -6 -80 -9 -82 -7 -2 2 9 18
25 36 16 19 40 58 53 88 116 265 184 364 284 415 45 23 61 26 123 22 46 -2 84
-11 105 -23z m-734 -632 c-8 -9 -16 -24 -19 -32 -3 -11 -24 -15 -85 -16 l-81
-2 19 32 c18 31 20 31 99 33 76 1 81 0 67 -15z m-455 -135 l138 -1 -25 -26
c-14 -15 -55 -91 -92 -171 -125 -272 -211 -359 -358 -359 -116 0 -185 56 -193
156 -2 29 -2 68 2 87 7 39 178 332 201 345 9 5 50 0 103 -11 61 -14 128 -20
224 -20z m2202 -359 c7 -60 3 -85 -54 -323 -48 -204 -51 -210 -91 -230 -35
-19 -65 -14 -99 13 l-23 19 55 109 c63 122 147 319 174 407 10 31 21 57 25 57
4 0 10 -24 13 -52z m-3472 -824 c144 -103 366 -259 491 -348 126 -88 233 -169
239 -179 8 -15 2 -32 -28 -80 -91 -148 -105 -167 -124 -167 -11 0 -106 62
-212 137 -106 75 -330 234 -497 353 -167 118 -309 222 -314 231 -7 12 5 38 53
110 77 116 89 129 111 129 9 0 136 -84 281 -186z"/>
</g>
</svg>
