<?xml version="1.0" encoding="UTF-8"?>
<svg version="1.1" xmlns="http://www.w3.org/2000/svg" width="671" height="675">
<path d="M0 0 C221.43 0 442.86 0 671 0 C671 222.75 671 445.5 671 675 C449.57 675 228.14 675 0 675 C0 452.25 0 229.5 0 0 Z " fill="#FEFEFE" transform="translate(0,0)"/>
<path d="M0 0 C0.80740631 -0.00358521 1.61481262 -0.00717041 2.44668579 -0.01086426 C18.8977574 -0.05021939 34.95981969 1.55384573 51.12109375 4.59375 C54.73468632 5.2688264 58.35931871 5.80152719 62 6.3125 C67.55597832 7.14970221 72.74484694 8.51913043 78.0625 10.3125 C78.81015625 10.56128906 79.5578125 10.81007813 80.328125 11.06640625 C81.82201574 11.5652404 83.3142105 12.06918163 84.8046875 12.578125 C86.29811538 13.06387663 87.80412455 13.51266164 89.3203125 13.921875 C95.13981028 15.49678859 100.45773861 17.78713627 105.87011719 20.40429688 C109.60965866 22.2018286 113.37135368 23.87654147 117.21484375 25.44140625 C118.08181885 25.79501221 118.94879395 26.14861816 119.84204102 26.51293945 C121.55115378 27.2040763 123.26384025 27.88645077 124.98022461 28.55932617 C125.75760986 28.87490479 126.53499512 29.1904834 127.3359375 29.515625 C128.03122559 29.79051758 128.72651367 30.06541016 129.44287109 30.34863281 C131.0625 31.3125 131.0625 31.3125 132.0625 34.3125 C134.04905916 35.01821038 136.05329148 35.67412271 138.0625 36.3125 C141.14915245 37.79871921 144.13277726 39.4582902 147.125 41.125 C147.91455078 41.55103516 148.70410156 41.97707031 149.51757812 42.41601562 C154.05884522 44.93217451 157.48115757 47.49611265 161.0625 51.3125 C162.74267 52.60010691 164.45212219 53.85032565 166.1875 55.0625 C185.13028325 68.66503052 201.83687087 84.84898803 216.10766602 103.27075195 C218.60190753 106.48658129 221.14364623 109.60423126 223.875 112.625 C231.91667777 121.70981993 237.31595714 132.70666834 243.0625 143.3125 C243.68922607 144.46903076 243.68922607 144.46903076 244.32861328 145.64892578 C248.52399547 153.41907149 252.65832651 161.15761328 256.0625 169.3125 C256.42472656 170.07949219 256.78695312 170.84648437 257.16015625 171.63671875 C263.12915656 184.78387378 266.60301957 199.29117924 269.60693359 213.375 C270.07943767 215.52039932 270.07943767 215.52039932 271.08984375 218.36328125 C272.30085471 222.03522211 272.97303335 225.6951364 273.625 229.5 C273.75068359 230.19158203 273.87636719 230.88316406 274.00585938 231.59570312 C275.71935132 241.4011832 276.22449826 251.19588949 276.265625 261.13671875 C276.27132507 262.24062454 276.27702515 263.34453033 276.28289795 264.48188782 C276.29229039 266.81058818 276.29885883 269.1393015 276.30273438 271.46801758 C276.31234994 274.94572713 276.34339247 278.42282148 276.375 281.90039062 C276.46219894 300.35394784 274.87760206 318.24792144 271.0625 336.3125 C270.4025 336.3125 269.7425 336.3125 269.0625 336.3125 C268.98773437 336.92351562 268.91296875 337.53453125 268.8359375 338.1640625 C267.26131243 349.124688 264.13858328 359.69478682 261.0625 370.3125 C260.75578369 371.37718506 260.75578369 371.37718506 260.44287109 372.46337891 C258.2939952 379.80427099 258.2939952 379.80427099 257.0625 382.3125 C256.0725 382.6425 255.0825 382.9725 254.0625 383.3125 C253.94390625 384.01761719 253.8253125 384.72273438 253.703125 385.44921875 C252.02883855 392.93246246 248.55492761 399.94885858 244.3203125 406.30078125 C242.36107337 409.43434694 240.83789643 412.76911905 239.2734375 416.11328125 C238.07547002 418.28894477 236.98067314 419.74446957 235.0625 421.3125 C234.4025 421.3125 233.7425 421.3125 233.0625 421.3125 C232.94003906 422.05113281 232.81757812 422.78976562 232.69140625 423.55078125 C230.75707917 432.04500015 224.49641555 438.78589491 219.0625 445.3125 C218.3715625 446.17746094 217.680625 447.04242188 216.96875 447.93359375 C212.30666755 453.75275101 207.41552769 459.29165516 202.31152344 464.72192383 C199.0923007 468.15276662 196.05931295 471.68558792 193.0625 475.3125 C190.75 477.75 190.75 477.75 188.0625 479.3125 C180.77121741 479.44041724 174.62379043 476.2175679 168.0625 473.3125 C166.39882398 472.63840481 164.73313867 471.96914957 163.0625 471.3125 C163.35125 472.43527344 163.64 473.55804687 163.9375 474.71484375 C164.9037351 478.54724809 165.78395336 482.39297271 166.61279297 486.25732422 C166.96981805 487.88894049 167.37004458 489.51109264 167.78515625 491.12890625 C168.19493618 493.76186004 168.25401708 494.90601077 167.0625 497.3125 C157.1056433 506.3125 157.1056433 506.3125 151.0625 506.3125 C150.99933594 505.48234375 150.93617188 504.6521875 150.87109375 503.796875 C149.46304637 489.62747194 145.65247938 476.05861963 142.0625 462.3125 C132.27646507 424.39340565 128.18781486 387.68627643 138.0625 349.3125 C138.4077888 347.42236352 138.72159056 345.52613873 139 343.625 C139.24363281 341.96597656 139.24363281 341.96597656 139.4921875 340.2734375 C139.62512207 339.3467627 139.62512207 339.3467627 139.76074219 338.40136719 C140.10639893 336.0086171 140.46354806 333.61768101 140.8203125 331.2265625 C141.08895888 329.40110302 141.35718727 327.57558197 141.625 325.75 C141.75189209 324.90026611 141.87878418 324.05053223 142.00952148 323.17504883 C146.25824707 293.79902876 147.53894459 259.93964411 128.91796875 234.859375 C119.61654679 222.96217159 108.51908661 216.82034822 94.0625 213.3125 C94.0625 212.6525 94.0625 211.9925 94.0625 211.3125 C90.12397625 211.36510435 86.18752539 211.46034198 82.25 211.5625 C81.14978516 211.57667969 80.04957031 211.59085938 78.91601562 211.60546875 C66.2111874 211.98024244 54.66466279 216.21824033 45.25 225.00390625 C43.73195473 226.70775394 42.38968841 228.45678524 41.0625 230.3125 C40.57394531 230.94414062 40.08539063 231.57578125 39.58203125 232.2265625 C32.32612935 242.1871065 28.28320911 254.12336053 27.0625 266.3125 C26.86914062 267.45525391 26.86914062 267.45525391 26.671875 268.62109375 C26.30951513 270.95510539 26.30951513 270.95510539 27.0625 274.3125 C28.91032321 276.19462155 30.79560418 277.57452798 33.01953125 278.98828125 C34.99283445 280.26734393 36.42634224 281.63978006 38.0625 283.3125 C39.72198148 284.32437895 41.38830562 285.3251546 43.0625 286.3125 C45.0625 288.3125 45.0625 288.3125 45.625 291.75 C45.41647595 298.93104685 40.49375728 304.75886399 35.734375 309.7578125 C29.42882769 315.58313601 29.42882769 315.58313601 25.0625 316.3125 C25.0625 316.9725 25.0625 317.6325 25.0625 318.3125 C8.16605681 325.44501495 8.16605681 325.44501495 0.0625 323.3125 C-13.31219868 317.86071806 -21.95974771 307.00323614 -27.9375 294.3125 C-29.30500105 290.06236889 -29.60879427 285.727247 -28.9375 281.3125 C-25.8347091 276.70835867 -22.19265526 275.48841723 -17.0859375 274.00390625 C-14.44297666 273.1533534 -12.29033053 271.76571886 -9.9375 270.3125 C-8.9475 270.3125 -7.9575 270.3125 -6.9375 270.3125 C-8.3563034 249.26979991 -10.60576088 227.50833763 -26.9375 212.3125 C-27.71867188 211.46171875 -28.49984375 210.6109375 -29.3046875 209.734375 C-32.29202883 206.98637556 -35.42585564 205.26980883 -39.0625 203.5625 C-39.68253906 203.25957031 -40.30257812 202.95664062 -40.94140625 202.64453125 C-52.29550915 197.15061049 -68.53588405 197.04156244 -80.73925781 199.98925781 C-85.62814548 201.75053395 -89.74618633 204.26720663 -93.9375 207.3125 C-94.74574219 207.89773438 -95.55398437 208.48296875 -96.38671875 209.0859375 C-98.39997835 210.71955386 -100.15660989 212.4306524 -101.9375 214.3125 C-102.59878906 214.95445312 -103.26007813 215.59640625 -103.94140625 216.2578125 C-126.35663228 239.31104307 -127.85494544 276.41096301 -128.32565308 306.47244263 C-128.55628104 320.62204593 -128.79890452 334.76050999 -129.875 348.875 C-129.94968506 349.89424561 -130.02437012 350.91349121 -130.10131836 351.96362305 C-130.49019236 356.51269259 -131.13138868 360.09824025 -132.9375 364.3125 C-133.62975569 367.41745338 -134.14390949 370.55358761 -134.6875 373.6875 C-137.5341671 389.24709252 -141.25528898 404.65363892 -146.84521484 419.47167969 C-148.57207416 424.06616473 -149.89457115 428.7039644 -151.15405273 433.44726562 C-151.91748966 436.23931791 -152.75314819 438.99664056 -153.62109375 441.7578125 C-159.30130718 460.0176986 -162.54442396 478.24713902 -163.9375 497.3125 C-167.89453034 495.82279446 -170.79291467 494.18754945 -173.9375 491.3125 C-173.9375 490.6525 -173.9375 489.9925 -173.9375 489.3125 C-174.52015625 489.04824219 -175.1028125 488.78398438 -175.703125 488.51171875 C-178.02660711 487.26467503 -179.73337105 485.88936849 -181.6875 484.125 C-184.81053178 481.32026362 -184.81053178 481.32026362 -187.98828125 478.578125 C-192.03933424 475.14849568 -195.61020427 471.57290355 -199.0390625 467.5234375 C-201.19210518 465.01598451 -203.43729652 462.60806589 -205.6875 460.1875 C-248.9375 412.61904312 -248.9375 412.61904312 -248.9375 393.3125 C-249.5975 393.3125 -250.2575 393.3125 -250.9375 393.3125 C-251.19144531 392.61125 -251.44539063 391.91 -251.70703125 391.1875 C-253.28223827 386.84535632 -254.85707606 382.50454482 -256.5 378.1875 C-257.5816868 375.30498297 -258.62190016 372.4108645 -259.625 369.5 C-259.87636719 368.77167969 -260.12773437 368.04335938 -260.38671875 367.29296875 C-260.9375 365.3125 -260.9375 365.3125 -260.9375 362.3125 C-261.5975 362.3125 -262.2575 362.3125 -262.9375 362.3125 C-270.82933938 330.36949482 -270.82933938 330.36949482 -272.9375 317.3125 C-273.10523926 316.50917236 -273.27297852 315.70584473 -273.44580078 314.87817383 C-275.47108028 304.12730019 -275.23893686 293.32340098 -275.19824219 282.42114258 C-275.18755718 279.01820925 -275.19816397 275.61580756 -275.2109375 272.21289062 C-275.21946198 260.39715684 -274.82548961 248.98378027 -272.9375 237.3125 C-272.65616211 235.42011597 -272.65616211 235.42011597 -272.36914062 233.48950195 C-271.79681203 229.69589796 -271.18522683 225.91062734 -270.5625 222.125 C-270.3665625 220.87525391 -270.170625 219.62550781 -269.96875 218.33789062 C-268.60874176 210.06163798 -266.59090093 202.26310755 -263.9375 194.3125 C-263.35539015 192.49872314 -262.77335477 190.68492238 -262.19140625 188.87109375 C-257.75794437 175.36315146 -252.83924084 162.62517425 -246 150.1484375 C-244.46058017 147.33918223 -243.05774018 144.48545139 -241.671875 141.59765625 C-238.65698229 135.5356506 -234.96306043 129.98471053 -231.1875 124.375 C-230.52234375 123.36759766 -229.8571875 122.36019531 -229.171875 121.32226562 C-224.47786759 114.30382185 -219.3891307 107.75608441 -213.9375 101.3125 C-213.36999023 100.63356689 -212.80248047 99.95463379 -212.21777344 99.25512695 C-206.31173264 92.22141665 -200.2153892 85.40022034 -193.75 78.875 C-193.19731445 78.31312988 -192.64462891 77.75125977 -192.07519531 77.17236328 C-188.1848048 73.3125 -188.1848048 73.3125 -185.9375 73.3125 C-185.9375 72.6525 -185.9375 71.9925 -185.9375 71.3125 C-184.32367052 69.85590023 -182.64386784 68.47201049 -180.9375 67.125 C-177.50522123 64.38531388 -174.13016923 61.63519945 -170.875 58.6875 C-166.49811641 54.82554389 -161.77160232 51.57254585 -156.9375 48.3125 C-155.97457031 47.64992187 -155.01164062 46.98734375 -154.01953125 46.3046875 C-145.65905208 40.61566804 -137.01625975 35.75529732 -127.9375 31.3125 C-126.43693946 30.56362212 -124.93701362 29.81347197 -123.4375 29.0625 C-122.57125 28.63324219 -121.705 28.20398438 -120.8125 27.76171875 C-118.79992482 26.74722773 -116.80081009 25.70579176 -114.8125 24.64453125 C-106.23774153 20.14873774 -97.58259047 16.90836039 -88.33789062 14.05517578 C-85.90218097 13.30157237 -83.47470189 12.52467604 -81.046875 11.74609375 C-69.48303818 8.09255869 -57.90966534 5.25410772 -45.9375 3.3125 C-45.0192041 3.16151855 -44.1009082 3.01053711 -43.15478516 2.85498047 C-28.76999688 0.59830443 -14.53135457 0.02576327 0 0 Z " fill="#82B0FE" transform="translate(346.9375,63.6875)"/>
<path d="M0 0 C5.98944654 3.0294447 10.65104596 7.35617265 15.375 12.0625 C16.25671875 12.94035156 16.25671875 12.94035156 17.15625 13.8359375 C17.5584375 14.24070313 17.960625 14.64546875 18.375 15.0625 C19.20902344 14.38703125 20.04304688 13.7115625 20.90234375 13.015625 C31.55227763 4.52201713 41.22854442 -1.42991953 55.375 0.0625 C61.60185794 1.78398521 66.13977867 4.42695317 69.375 10.0625 C69.98013167 14.62590473 69.83178498 18.69214506 68.375 23.0625 C67.715 23.0625 67.055 23.0625 66.375 23.0625 C66.14039063 23.93132812 65.90578125 24.80015625 65.6640625 25.6953125 C64.21731986 29.47437964 62.36966709 31.86874713 59.75 34.9375 C58.52410156 36.38769531 58.52410156 36.38769531 57.2734375 37.8671875 C56.64695312 38.59164062 56.02046875 39.31609375 55.375 40.0625 C56.45910156 40.12824219 57.54320312 40.19398438 58.66015625 40.26171875 C64.48330533 40.99329589 69.51460909 43.46247508 74.8125 45.875 C75.79798828 46.31392578 76.78347656 46.75285156 77.79882812 47.20507812 C80.66168876 48.48188741 83.51834018 49.77189201 86.375 51.0625 C89.37325658 52.39977075 92.37377534 53.73190547 95.375 55.0625 C95.375 55.7225 95.375 56.3825 95.375 57.0625 C96.1071875 57.33191406 96.839375 57.60132813 97.59375 57.87890625 C115.13519553 65.34387534 132.16903674 83.24027533 140.375 100.0625 C141.08269531 100.73925781 141.08269531 100.73925781 141.8046875 101.4296875 C155.29640819 115.4583921 156.93318243 144.30843366 156.75 162.75 C156.74501495 163.94715134 156.74501495 163.94715134 156.7399292 165.16848755 C156.66665487 180.28160038 155.40444506 195.08150554 153.375 210.0625 C153.19257186 211.56737863 153.01253428 213.07255092 152.8359375 214.578125 C152.24175971 219.31140569 151.55369568 223.65907376 149.98046875 228.1640625 C148.05676814 233.75799676 146.87234955 239.46177727 145.6875 245.25 C145.46255859 246.30380859 145.23761719 247.35761719 145.00585938 248.44335938 C144.6877832 249.97766602 144.6877832 249.97766602 144.36328125 251.54296875 C144.17290283 252.45973389 143.98252441 253.37649902 143.78637695 254.32104492 C143.3397444 257.29744668 143.19649796 260.05758223 143.375 263.0625 C144.99188053 264.71094442 144.99188053 264.71094442 147.375 265.75 C166.98792445 276.40256434 186.60162706 291.57659083 199.375 310.0625 C199.9834375 310.88878906 200.591875 311.71507812 201.21875 312.56640625 C204.38558163 316.92079974 207.11308286 320.73440541 208.375 326.0625 C209.035 326.0625 209.695 326.0625 210.375 326.0625 C211.27190912 327.61252751 212.1418197 329.17819918 213 330.75 C213.48726562 331.62011719 213.97453125 332.49023438 214.4765625 333.38671875 C215.375 336.0625 215.375 336.0625 214.921875 338.39453125 C212.66655913 342.28438161 209.8898112 345.6274996 207 349.0625 C206.37875244 349.80927002 205.75750488 350.55604004 205.11743164 351.32543945 C200.25202635 357.12838116 195.19724156 362.72836706 189.99609375 368.23046875 C187.34139933 371.09880474 184.86384631 374.05057413 182.375 377.0625 C180.0625 379.5 180.0625 379.5 177.375 381.0625 C170.08371741 381.19041724 163.93629043 377.9675679 157.375 375.0625 C155.71132398 374.38840481 154.04563867 373.71914957 152.375 373.0625 C152.66375 374.18527344 152.9525 375.30804687 153.25 376.46484375 C154.2162351 380.29724809 155.09645336 384.14297271 155.92529297 388.00732422 C156.28231805 389.63894049 156.68254458 391.26109264 157.09765625 392.87890625 C157.50743618 395.51186004 157.56651708 396.65601077 156.375 399.0625 C146.4181433 408.0625 146.4181433 408.0625 140.375 408.0625 C140.31183594 407.23234375 140.24867188 406.4021875 140.18359375 405.546875 C138.77554637 391.37747194 134.96497938 377.80861963 131.375 364.0625 C121.58896507 326.14340565 117.50031486 289.43627643 127.375 251.0625 C127.7202888 249.17236352 128.03409056 247.27613873 128.3125 245.375 C128.55613281 243.71597656 128.55613281 243.71597656 128.8046875 242.0234375 C128.89331055 241.4056543 128.98193359 240.78787109 129.07324219 240.15136719 C129.41889893 237.7586171 129.77604806 235.36768101 130.1328125 232.9765625 C130.40145888 231.15110302 130.66968727 229.32558197 130.9375 227.5 C131.06439209 226.65026611 131.19128418 225.80053223 131.32202148 224.92504883 C135.57074707 195.54902876 136.85144459 161.68964411 118.23046875 136.609375 C108.92904679 124.71217159 97.83158661 118.57034822 83.375 115.0625 C83.375 114.4025 83.375 113.7425 83.375 113.0625 C79.43647625 113.11510435 75.50002539 113.21034198 71.5625 113.3125 C70.46228516 113.32667969 69.36207031 113.34085937 68.22851562 113.35546875 C55.5236874 113.73024244 43.97716279 117.96824033 34.5625 126.75390625 C33.04445473 128.45775394 31.70218841 130.20678524 30.375 132.0625 C29.88644531 132.69414062 29.39789063 133.32578125 28.89453125 133.9765625 C21.63862935 143.9371065 17.59570911 155.87336053 16.375 168.0625 C16.18164062 169.20525391 16.18164062 169.20525391 15.984375 170.37109375 C15.62201513 172.70510539 15.62201513 172.70510539 16.375 176.0625 C18.22282321 177.94462155 20.10810418 179.32452798 22.33203125 180.73828125 C24.30533445 182.01734393 25.73884224 183.38978006 27.375 185.0625 C29.03448148 186.07437895 30.70080562 187.0751546 32.375 188.0625 C34.375 190.0625 34.375 190.0625 34.9375 193.5 C34.72897595 200.68104685 29.80625728 206.50886399 25.046875 211.5078125 C18.74132769 217.33313601 18.74132769 217.33313601 14.375 218.0625 C14.375 218.7225 14.375 219.3825 14.375 220.0625 C-2.52144319 227.19501495 -2.52144319 227.19501495 -10.625 225.0625 C-23.99969868 219.61071806 -32.64724771 208.75323614 -38.625 196.0625 C-39.99250105 191.81236889 -40.29629427 187.477247 -39.625 183.0625 C-36.5222091 178.45835867 -32.88015526 177.23841723 -27.7734375 175.75390625 C-25.13047666 174.9033534 -22.97783053 173.51571886 -20.625 172.0625 C-19.635 172.0625 -18.645 172.0625 -17.625 172.0625 C-19.0438034 151.01979991 -21.29326088 129.25833763 -37.625 114.0625 C-38.40617188 113.21171875 -39.18734375 112.3609375 -39.9921875 111.484375 C-42.97952883 108.73637556 -46.11335564 107.01980883 -49.75 105.3125 C-50.37003906 105.00957031 -50.99007812 104.70664062 -51.62890625 104.39453125 C-62.98300915 98.90061049 -79.22338405 98.79156244 -91.42675781 101.73925781 C-96.31564548 103.50053395 -100.43368633 106.01720663 -104.625 109.0625 C-105.43324219 109.64773438 -106.24148437 110.23296875 -107.07421875 110.8359375 C-109.08747835 112.46955386 -110.84410989 114.1806524 -112.625 116.0625 C-113.61693359 117.02542969 -113.61693359 117.02542969 -114.62890625 118.0078125 C-137.04413228 141.06104307 -138.54244544 178.16096301 -139.01315308 208.22244263 C-139.24378104 222.37204593 -139.48640452 236.51050999 -140.5625 250.625 C-140.63718506 251.64424561 -140.71187012 252.66349121 -140.78881836 253.71362305 C-141.17769236 258.26269259 -141.81888868 261.84824025 -143.625 266.0625 C-144.31725569 269.16745338 -144.83140949 272.30358761 -145.375 275.4375 C-148.2216671 290.99709252 -151.94278898 306.40363892 -157.53271484 321.22167969 C-159.25957416 325.81616473 -160.58207115 330.4539644 -161.84155273 335.19726562 C-162.60498966 337.98931791 -163.44064819 340.74664056 -164.30859375 343.5078125 C-169.98880718 361.7676986 -173.23192396 379.99713902 -174.625 399.0625 C-178.58203034 397.57279446 -181.48041467 395.93754945 -184.625 393.0625 C-184.625 392.4025 -184.625 391.7425 -184.625 391.0625 C-185.24375 390.753125 -185.8625 390.44375 -186.5 390.125 C-187.875 389.4375 -189.25 388.75 -190.625 388.0625 C-190.99785674 379.44633001 -190.02705889 371.84685865 -187.9375 363.5 C-187.66856934 362.38189941 -187.39963867 361.26379883 -187.12255859 360.11181641 C-184.76520103 350.39239927 -182.25250696 340.7121937 -179.625 331.0625 C-178.965 331.0625 -178.305 331.0625 -177.625 331.0625 C-177.55023438 330.40507812 -177.47546875 329.74765625 -177.3984375 329.0703125 C-176.25269674 320.78054112 -173.81126272 313.2478674 -171.08984375 305.37890625 C-169.35215569 300.3386141 -167.92320406 295.23254073 -166.625 290.0625 C-167.17542969 289.81886719 -167.72585937 289.57523437 -168.29296875 289.32421875 C-175.41966882 285.46839945 -181.55662372 279.34288817 -187.1484375 273.5390625 C-188.72266332 271.902942 -188.72266332 271.902942 -191.125 270.125 C-204.81095961 258.83408332 -216.39901319 240.01988753 -223.625 224.0625 C-223.625 223.4025 -223.625 222.7425 -223.625 222.0625 C-224.285 222.0625 -224.945 222.0625 -225.625 222.0625 C-226.5868423 219.54295712 -227.54454241 217.02196363 -228.5 214.5 C-228.76941406 213.79552734 -229.03882813 213.09105469 -229.31640625 212.36523438 C-233.625 200.96322409 -233.625 200.96322409 -233.625 195.0625 C-234.285 195.0625 -234.945 195.0625 -235.625 195.0625 C-236.10923511 192.7509626 -236.58744112 190.43842629 -237.0625 188.125 C-237.32933594 186.83722656 -237.59617187 185.54945313 -237.87109375 184.22265625 C-240.56886794 170.0226918 -244.1265018 145.2671768 -236.109375 132.68359375 C-234.40028223 130.60667449 -232.64486753 128.83376845 -230.625 127.0625 C-229.51125 126.0725 -229.51125 126.0725 -228.375 125.0625 C-221.68115504 122.62837456 -215.71861777 123.3181491 -209.20776367 126.11474609 C-189.16546598 135.47625214 -169.37054953 150.36232586 -158.625 170.0625 C-158.625 170.7225 -158.625 171.3825 -158.625 172.0625 C-157.965 172.0625 -157.305 172.0625 -156.625 172.0625 C-156.67140625 170.99515625 -156.7178125 169.9278125 -156.765625 168.828125 C-157.34814179 149.4285506 -152.30664866 131.92998667 -146.52734375 113.53515625 C-146.23335693 112.59937744 -145.93937012 111.66359863 -145.63647461 110.69946289 C-144.5711674 107.92215582 -143.19164182 105.5848012 -141.625 103.0625 C-141.2125 102.051875 -140.8 101.04125 -140.375 100 C-129.45786904 74.15536344 -106.43013709 52.0110904 -80.64111328 41.23339844 C-72.52565044 38.14818116 -64.08697092 35.96433699 -55.625 34.0625 C-54.83222656 33.87945312 -54.03945313 33.69640625 -53.22265625 33.5078125 C-46.69233021 32.09526278 -40.08578459 31.31102655 -33.45703125 30.52734375 C-29.83650492 30.08815656 -26.23318329 29.59132583 -22.625 29.0625 C-23.24375 28.340625 -23.8625 27.61875 -24.5 26.875 C-28.30296786 21.84166019 -29.40308928 17.35903789 -28.625 11.0625 C-26.83489121 5.69217363 -24.74210195 1.94916697 -19.84375 -1.015625 C-13.54189387 -3.63400184 -6.14733587 -2.53588535 0 0 Z " fill="#7D7B8E" transform="translate(357.625,161.9375)"/>
<path d="M0 0 C5.98944654 3.0294447 10.65104596 7.35617265 15.375 12.0625 C16.25671875 12.94035156 16.25671875 12.94035156 17.15625 13.8359375 C17.5584375 14.24070313 17.960625 14.64546875 18.375 15.0625 C19.20902344 14.38703125 20.04304688 13.7115625 20.90234375 13.015625 C31.55227763 4.52201713 41.22854442 -1.42991953 55.375 0.0625 C61.60185794 1.78398521 66.13977867 4.42695317 69.375 10.0625 C69.98013167 14.62590473 69.83178498 18.69214506 68.375 23.0625 C67.715 23.0625 67.055 23.0625 66.375 23.0625 C66.14039063 23.93132812 65.90578125 24.80015625 65.6640625 25.6953125 C64.21731986 29.47437964 62.36966709 31.86874713 59.75 34.9375 C58.52410156 36.38769531 58.52410156 36.38769531 57.2734375 37.8671875 C56.64695312 38.59164062 56.02046875 39.31609375 55.375 40.0625 C56.45910156 40.12824219 57.54320312 40.19398438 58.66015625 40.26171875 C64.48330533 40.99329589 69.51460909 43.46247508 74.8125 45.875 C75.79798828 46.31392578 76.78347656 46.75285156 77.79882812 47.20507812 C80.66168876 48.48188741 83.51834018 49.77189201 86.375 51.0625 C89.37325658 52.39977075 92.37377534 53.73190547 95.375 55.0625 C95.375 55.7225 95.375 56.3825 95.375 57.0625 C96.1071875 57.33191406 96.839375 57.60132813 97.59375 57.87890625 C115.13519553 65.34387534 132.16903674 83.24027533 140.375 100.0625 C141.08269531 100.73925781 141.08269531 100.73925781 141.8046875 101.4296875 C155.29640819 115.4583921 156.93318243 144.30843366 156.75 162.75 C156.74501495 163.94715134 156.74501495 163.94715134 156.7399292 165.16848755 C156.66665487 180.28160038 155.40444506 195.08150554 153.375 210.0625 C153.19257186 211.56737863 153.01253428 213.07255092 152.8359375 214.578125 C152.24175971 219.31140569 151.55369568 223.65907376 149.98046875 228.1640625 C148.05676814 233.75799676 146.87234955 239.46177727 145.6875 245.25 C145.46255859 246.30380859 145.23761719 247.35761719 145.00585938 248.44335938 C144.6877832 249.97766602 144.6877832 249.97766602 144.36328125 251.54296875 C144.17290283 252.45973389 143.98252441 253.37649902 143.78637695 254.32104492 C143.3397444 257.29744668 143.19649796 260.05758223 143.375 263.0625 C144.99188053 264.71094442 144.99188053 264.71094442 147.375 265.75 C166.98792445 276.40256434 186.60162706 291.57659083 199.375 310.0625 C199.9834375 310.88878906 200.591875 311.71507812 201.21875 312.56640625 C204.38558163 316.92079974 207.11308286 320.73440541 208.375 326.0625 C209.035 326.0625 209.695 326.0625 210.375 326.0625 C211.27190912 327.61252751 212.1418197 329.17819918 213 330.75 C213.48726562 331.62011719 213.97453125 332.49023438 214.4765625 333.38671875 C215.375 336.0625 215.375 336.0625 214.6484375 338.70703125 C213.375 341.0625 213.375 341.0625 211.375 344.0625 C210.715 344.0625 210.055 344.0625 209.375 344.0625 C208.84132813 342.99773437 208.30765625 341.93296875 207.7578125 340.8359375 C194.76967747 315.3585299 176.25587811 294.86247491 152.375 279.0625 C151.4778125 278.44890625 150.580625 277.8353125 149.65625 277.203125 C145.25375132 274.17054391 145.25375132 274.17054391 140.375 272.0625 C140.375 273.3825 140.375 274.7025 140.375 276.0625 C139.715 276.0625 139.055 276.0625 138.375 276.0625 C138.32601563 276.91972656 138.27703125 277.77695312 138.2265625 278.66015625 C137.82965756 284.73006456 137.38291601 290.30647411 135.375 296.0625 C134.055 296.0625 132.735 296.0625 131.375 296.0625 C130.29332635 275.63088664 134.28384571 255.99747388 138.375 236.0625 C139.035 236.0625 139.695 236.0625 140.375 236.0625 C140.41238281 235.381875 140.44976562 234.70125 140.48828125 234 C140.88365628 228.17015643 141.60491141 222.54393816 142.75 216.8125 C145.96745752 200.2130703 147.66004758 183.83840569 147.6875 166.9375 C147.69099457 166.24907013 147.69448914 165.56064026 147.6980896 164.85134888 C147.73142668 153.0459638 146.56806696 141.51801919 143.9375 130 C143.71191406 128.97777344 143.48632812 127.95554687 143.25390625 126.90234375 C142.33134881 123.92145814 141.00919746 121.70754124 139.375 119.0625 C138.7298362 117.34820761 138.1262583 115.61775968 137.5625 113.875 C131.27533999 96.30379536 115.95260097 79.16319472 100.07421875 69.70703125 C97.47796309 68.12523149 95.11150779 66.39370186 92.6875 64.5625 C86.68307398 60.30498966 80.06628764 57.63459807 73.29101562 54.85595703 C71.57460963 54.14516199 69.87215945 53.40088361 68.171875 52.65234375 C61.64742741 49.80007856 55.10391614 47.74494513 48.2109375 45.95703125 C45.375 45.0625 45.375 45.0625 43.375 43.0625 C43.4375 40.6875 43.4375 40.6875 44.375 38.0625 C45.12265625 37.47339844 45.8703125 36.88429687 46.640625 36.27734375 C49.70075229 33.79864064 51.74400233 31.17661736 54.0625 28 C54.82949219 26.95714844 55.59648437 25.91429687 56.38671875 24.83984375 C59.78394703 20.09440306 60.5964479 17.93086936 60.375 12.0625 C55.06687044 8.70999712 50.47358729 8.04463112 44.375 9.0625 C36.25575898 11.79483008 29.97859076 16.66073831 23.8269043 22.4543457 C21.46777656 24.61622571 19.81976173 25.97405668 16.64453125 26.60546875 C14.375 26.0625 14.375 26.0625 13.0390625 24.55859375 C12.52472656 23.53958984 12.52472656 23.53958984 12 22.5 C7.38250171 14.40865625 1.20716453 9.2000608 -7.625 6.0625 C-10.74668423 5.40389424 -12.37597134 5.50232265 -15.625 6.0625 C-18.8586123 8.73023015 -19.52320508 10.36265992 -20.125 14.5 C-19.22943426 20.88090589 -15.28501004 24.85712509 -10.625 29.0625 C-8.99122358 30.11537814 -7.33318403 31.1352001 -5.625 32.0625 C-6.5 36.9375 -6.5 36.9375 -7.625 38.0625 C-9.36560894 38.18489397 -11.11083876 38.24235722 -12.85546875 38.2734375 C-13.95802002 38.29954102 -15.06057129 38.32564453 -16.1965332 38.35253906 C-17.98643677 38.39459473 -17.98643677 38.39459473 -19.8125 38.4375 C-37.43376302 38.99272084 -54.24839783 40.14220354 -70.625 47.0625 C-72.41664715 47.75005087 -74.20831228 48.43755486 -76 49.125 C-97.81658823 58.08538445 -114.99134279 73.41603178 -127.25 93.4375 C-127.61077637 94.02587646 -127.97155273 94.61425293 -128.34326172 95.22045898 C-143.03840507 119.96364952 -148.83467173 148.69676119 -149.0625 177.1875 C-149.0728125 178.24759277 -149.083125 179.30768555 -149.09375 180.39990234 C-149.02792958 186.10159641 -148.391769 190.84759077 -146.28417969 196.16333008 C-145.36071813 198.82392543 -145.41092276 201.27949593 -145.625 204.0625 C-147.390625 204.01171875 -147.390625 204.01171875 -149.625 203.0625 C-151.059071 200.6673604 -152.229278 198.40308893 -153.375 195.875 C-154.08190645 194.40103184 -154.7915968 192.92839596 -155.50390625 191.45703125 C-155.85984863 190.71533691 -156.21579102 189.97364258 -156.58251953 189.20947266 C-168.21128646 165.26020419 -187.84777764 142.68400473 -213.57421875 133.55859375 C-218.3297674 132.40820389 -223.00350562 132.52200187 -227.625 134.0625 C-237.17450686 152.63098557 -229.98358842 181.69992768 -224.1875 200.625 C-222.30392736 206.48925821 -220.03612037 212.17400046 -217.54296875 217.8046875 C-216.625 220.0625 -216.625 220.0625 -216.625 222.0625 C-215.965 222.0625 -215.305 222.0625 -214.625 222.0625 C-214.295 224.0425 -213.965 226.0225 -213.625 228.0625 C-212.965 228.0625 -212.305 228.0625 -211.625 228.0625 C-210.78385829 229.49544498 -209.95234313 230.93404405 -209.125 232.375 C-208.42890625 233.57576172 -208.42890625 233.57576172 -207.71875 234.80078125 C-206.625 237.0625 -206.625 237.0625 -206.625 240.0625 C-205.965 240.0625 -205.305 240.0625 -204.625 240.0625 C-203.07147921 241.94739803 -201.62324652 243.84060098 -200.1875 245.8125 C-195.83151673 251.64811684 -191.15765983 257.00935019 -186.16796875 262.30859375 C-184.37755694 264.24751898 -182.68589813 266.17670533 -181.01953125 268.21484375 C-179.12586794 270.46685117 -177.37023857 272.31986973 -175.125 274.1875 C-174.45597656 274.765 -173.78695312 275.3425 -173.09765625 275.9375 C-171.72622181 277.11611032 -170.35357826 278.29333305 -168.97607422 279.46484375 C-167.15683632 281.02291619 -165.35908237 282.6033906 -163.5625 284.1875 C-162.96566406 284.69039551 -162.36882812 285.19329102 -161.75390625 285.71142578 C-160.08984375 287.1953125 -160.08984375 287.1953125 -157.625 290.0625 C-157.62109375 292.48828125 -157.62109375 292.48828125 -158.625 295.0625 C-159.09292969 296.68865234 -159.09292969 296.68865234 -159.5703125 298.34765625 C-159.95960938 299.59417969 -160.34890625 300.84070313 -160.75 302.125 C-160.96736816 302.82125488 -161.18473633 303.51750977 -161.40869141 304.23486328 C-162.87496378 308.86869269 -164.46821948 313.44378276 -166.1237793 318.01293945 C-170.45177195 329.98878092 -173.72125573 342.16786126 -176.92260742 354.48608398 C-177.45441845 356.43679715 -178.07116565 358.36460754 -178.7265625 360.27734375 C-179.94292507 364.04806773 -180.56276258 367.84343496 -181.1875 371.75 C-181.31680908 372.54003418 -181.44611816 373.33006836 -181.5793457 374.14404297 C-182.52942857 380.09740932 -183.24054213 386.04374573 -183.625 392.0625 C-185.935 390.7425 -188.245 389.4225 -190.625 388.0625 C-190.99785674 379.44633001 -190.02705889 371.84685865 -187.9375 363.5 C-187.66856934 362.38189941 -187.39963867 361.26379883 -187.12255859 360.11181641 C-184.76520103 350.39239927 -182.25250696 340.7121937 -179.625 331.0625 C-178.965 331.0625 -178.305 331.0625 -177.625 331.0625 C-177.55023438 330.40507812 -177.47546875 329.74765625 -177.3984375 329.0703125 C-176.25269674 320.78054112 -173.81126272 313.2478674 -171.08984375 305.37890625 C-169.35215569 300.3386141 -167.92320406 295.23254073 -166.625 290.0625 C-167.17542969 289.81886719 -167.72585937 289.57523437 -168.29296875 289.32421875 C-175.41966882 285.46839945 -181.55662372 279.34288817 -187.1484375 273.5390625 C-188.72266332 271.902942 -188.72266332 271.902942 -191.125 270.125 C-204.81095961 258.83408332 -216.39901319 240.01988753 -223.625 224.0625 C-223.625 223.4025 -223.625 222.7425 -223.625 222.0625 C-224.285 222.0625 -224.945 222.0625 -225.625 222.0625 C-226.5868423 219.54295712 -227.54454241 217.02196363 -228.5 214.5 C-228.76941406 213.79552734 -229.03882813 213.09105469 -229.31640625 212.36523438 C-233.625 200.96322409 -233.625 200.96322409 -233.625 195.0625 C-234.285 195.0625 -234.945 195.0625 -235.625 195.0625 C-236.10923511 192.7509626 -236.58744112 190.43842629 -237.0625 188.125 C-237.32933594 186.83722656 -237.59617187 185.54945313 -237.87109375 184.22265625 C-240.56886794 170.0226918 -244.1265018 145.2671768 -236.109375 132.68359375 C-234.40028223 130.60667449 -232.64486753 128.83376845 -230.625 127.0625 C-229.51125 126.0725 -229.51125 126.0725 -228.375 125.0625 C-221.68115504 122.62837456 -215.71861777 123.3181491 -209.20776367 126.11474609 C-189.16546598 135.47625214 -169.37054953 150.36232586 -158.625 170.0625 C-158.625 170.7225 -158.625 171.3825 -158.625 172.0625 C-157.965 172.0625 -157.305 172.0625 -156.625 172.0625 C-156.67140625 170.99515625 -156.7178125 169.9278125 -156.765625 168.828125 C-157.34814179 149.4285506 -152.30664866 131.92998667 -146.52734375 113.53515625 C-146.23335693 112.59937744 -145.93937012 111.66359863 -145.63647461 110.69946289 C-144.5711674 107.92215582 -143.19164182 105.5848012 -141.625 103.0625 C-141.2125 102.051875 -140.8 101.04125 -140.375 100 C-129.45786904 74.15536344 -106.43013709 52.0110904 -80.64111328 41.23339844 C-72.52565044 38.14818116 -64.08697092 35.96433699 -55.625 34.0625 C-54.83222656 33.87945312 -54.03945313 33.69640625 -53.22265625 33.5078125 C-46.69233021 32.09526278 -40.08578459 31.31102655 -33.45703125 30.52734375 C-29.83650492 30.08815656 -26.23318329 29.59132583 -22.625 29.0625 C-23.24375 28.340625 -23.8625 27.61875 -24.5 26.875 C-28.30296786 21.84166019 -29.40308928 17.35903789 -28.625 11.0625 C-26.83489121 5.69217363 -24.74210195 1.94916697 -19.84375 -1.015625 C-13.54189387 -3.63400184 -6.14733587 -2.53588535 0 0 Z " fill="#090D74" transform="translate(357.625,161.9375)"/>
<path d="M0 0 C2.05279359 4.10558718 2.2216942 5.80206685 2.125 10.25 C2.10695313 11.32765625 2.08890625 12.4053125 2.0703125 13.515625 C2.03550781 14.74539063 2.03550781 14.74539063 2 16 C2.66 16.33 3.32 16.66 4 17 C2.94039063 17.62648438 1.88078125 18.25296875 0.7890625 18.8984375 C-0.5990511 19.72380234 -1.98706686 20.54933174 -3.375 21.375 C-4.07367188 21.7875 -4.77234375 22.2 -5.4921875 22.625 C-6.1625 23.02460937 -6.8328125 23.42421875 -7.5234375 23.8359375 C-8.14138184 24.20251465 -8.75932617 24.5690918 -9.39599609 24.94677734 C-11.16790733 26.03259894 -11.16790733 26.03259894 -13 28 C-14.32 28 -15.64 28 -17 28 C-17 28.66 -17 29.32 -17 30 C-24.19928234 33.69300362 -31.33725698 37.28044706 -38.90625 40.16796875 C-41.19086348 41.03473489 -41.19086348 41.03473489 -44 42.5625 C-47.38152679 44.18281492 -50.74375091 45.15259815 -54.34375 46.171875 C-57.0667064 47.0207967 -59.6286407 48.0663162 -62.25 49.1875 C-65.98720456 50.73779148 -68.89886404 51.43169852 -73 51 C-73 51.66 -73 52.32 -73 53 C-74.0372522 53.17390259 -74.0372522 53.17390259 -75.09545898 53.35131836 C-78.21018731 53.87590142 -81.32383966 54.40661632 -84.4375 54.9375 C-86.07041992 55.21110352 -86.07041992 55.21110352 -87.73632812 55.49023438 C-88.77080078 55.66748047 -89.80527344 55.84472656 -90.87109375 56.02734375 C-91.82943115 56.18968506 -92.78776855 56.35202637 -93.77514648 56.51928711 C-95.96213392 56.78152632 -95.96213392 56.78152632 -97 58 C-99.35270322 58.5571395 -101.689258 59.04731361 -104.0625 59.5 C-105.99802734 59.88671875 -105.99802734 59.88671875 -107.97265625 60.28125 C-121.49317926 62.45452246 -135.38343708 62.18640976 -149.03637695 62.18530273 C-152.06150186 62.18749928 -155.08626675 62.2057624 -158.11132812 62.22460938 C-168.83835193 62.25542439 -179.44948145 62.16777761 -190 60 C-190.33 59.67 -190.66 59.34 -191 59 C-194.19280616 58.45644645 -197.39639601 58.03409014 -200.60546875 57.59765625 C-204 57 -204 57 -207.03125 55.98046875 C-210.17724104 54.94146381 -213.02049172 54.58117209 -216.3125 54.25 C-227.94138585 52.68882822 -238.94833146 48.30033371 -249.41015625 43.078125 C-252.15152865 41.8539222 -252.15152865 41.8539222 -255.83984375 41.1015625 C-260.13552634 40.08287925 -263.67657502 38.29026593 -267.5 36.125 C-268.7389728 35.43900033 -269.97855907 34.7541075 -271.21875 34.0703125 C-272.15424683 33.55041748 -272.15424683 33.55041748 -273.10864258 33.02001953 C-274.96041314 32.02134941 -276.83536585 31.10076144 -278.73046875 30.1875 C-284.29400265 27.4334224 -289.52909098 24.12478234 -294.8125 20.875 C-295.84826172 20.24207031 -296.88402344 19.60914063 -297.95117188 18.95703125 C-305.44196429 14.37202381 -305.44196429 14.37202381 -309 12 C-309 11.34 -309 10.68 -309 10 C-305.37657339 11.29702203 -302.22213828 13.02077894 -298.94091797 15.02050781 C-272.55665194 30.88425519 -239.98106845 35.39031901 -209.72167969 35.20581055 C-206.63728492 35.18757264 -203.55319315 35.18530161 -200.46875 35.18554688 C-181.60752771 35.35454755 -181.60752771 35.35454755 -162.8840332 33.47509766 C-153.54990746 31.93745195 -143.99472731 33.29161697 -134.6875 34.4375 C-132.29191225 34.71566489 -129.89607931 34.99172663 -127.5 35.265625 C-126.36820313 35.39517578 -125.23640625 35.52472656 -124.0703125 35.65820312 C-118.05076438 36.32831821 -112.0555211 36.79075163 -106 37 C-104.8855249 37.04084717 -104.8855249 37.04084717 -103.74853516 37.08251953 C-63.82150446 38.46136406 -63.82150446 38.46136406 -27 26 C-25.57604966 25.48195331 -24.13656112 25.00547723 -22.6875 24.5625 C-17.98811501 23.04706315 -13.54824265 21.54824265 -10 18 C-9.01 18 -8.02 18 -7 18 C-7 17.34 -7 16.68 -7 16 C-5.515 15.505 -5.515 15.505 -4 15 C-2.79117904 12.99983534 -2.79117904 12.99983534 -2 11 C-1.34 11 -0.68 11 0 11 C0 7.37 0 3.74 0 0 Z " fill="#E1E1E9" transform="translate(496,554)"/>
<path d="M0 0 C9.16182348 0.77642572 16.42666408 7.24364113 22.59765625 13.50390625 C24.44595931 15.83967386 25.42251938 17.94190946 26.375 20.75 C29.68323623 21.13644883 30.99612924 21.03654091 33.69921875 18.9921875 C34.47910156 18.21101563 35.25898438 17.42984375 36.0625 16.625 C44.074006 9.03200551 52.65472719 3.28243541 63.9296875 3.484375 C67.56404201 3.87916111 70.75948159 5.13448159 73.375 7.75 C74.18657774 11.898064 73.93819993 13.81356306 71.73046875 17.484375 C69.67853762 20.30149751 67.56570306 23.03960461 65.375 25.75 C64.6840625 26.63816406 63.993125 27.52632812 63.28125 28.44140625 C61.21206921 30.94731987 58.9688103 32.80464227 56.375 34.75 C56.705 36.4 57.035 38.05 57.375 39.75 C57.91278076 39.90033691 58.45056152 40.05067383 59.00463867 40.20556641 C69.91605322 43.28586118 80.26119889 46.54545271 90.375 51.75 C89.385 52.245 89.385 52.245 88.375 52.75 C88.375 53.41 88.375 54.07 88.375 54.75 C87.385 54.75 86.395 54.75 85.375 54.75 C85.375 55.41 85.375 56.07 85.375 56.75 C86.365 57.41 87.355 58.07 88.375 58.75 C88.375 59.41 88.375 60.07 88.375 60.75 C89.6125 61.08 90.85 61.41 92.125 61.75 C98.61276931 63.91597941 103.84754908 67.8099196 109.375 71.75 C110.31859375 72.40484375 111.2621875 73.0596875 112.234375 73.734375 C117.85317055 77.70245096 123.02140692 81.96688436 128.0703125 86.63671875 C130.16461929 88.55709159 132.30908542 90.37933556 134.5 92.1875 C135.44875 93.033125 136.3975 93.87875 137.375 94.75 C137.375 95.41 137.375 96.07 137.375 96.75 C133.67266433 95.07768896 130.54512295 92.79966646 127.25 90.4375 C121.86818418 86.63159613 116.40143035 83.45713237 110.375 80.75 C110.375 80.09 110.375 79.43 110.375 78.75 C109.66730469 78.64300781 108.95960938 78.53601563 108.23046875 78.42578125 C105.04797689 77.67260602 102.57804732 76.46188744 99.6875 74.9375 C95.1122806 72.58821455 90.54451753 70.53009473 85.74609375 68.6875 C83.36941239 67.74779073 81.06707513 66.70234091 78.75 65.625 C74.68236227 63.78522039 70.71809582 62.76338902 66.375 61.75 C65.58996094 61.43289062 64.80492187 61.11578125 63.99609375 60.7890625 C61.25004861 59.70046636 58.55523605 58.95449056 55.6875 58.25 C54.73488281 58.0128125 53.78226563 57.775625 52.80078125 57.53125 C49.22237691 56.71519428 45.63559091 55.98158642 42.03393555 55.27636719 C40.31276686 54.93564185 38.59391668 54.58289231 36.87817383 54.21582031 C21.21811972 50.92338577 5.81894733 50.33964488 -10.125 50.3125 C-11.59229553 50.30364777 -11.59229553 50.30364777 -13.0892334 50.2946167 C-25.90262031 50.24227663 -38.07627228 51.1297913 -50.625 53.75 C-51.69862793 53.96986572 -52.77225586 54.18973145 -53.87841797 54.41625977 C-56.53420568 54.98892962 -59.17316169 55.60625895 -61.8125 56.25 C-63.10510742 56.54970703 -63.10510742 56.54970703 -64.42382812 56.85546875 C-69.43304635 58.05706884 -73.95422794 59.57588104 -78.625 61.75 C-82.26586238 63.44342436 -83.80630012 63.87551154 -87.625 62.75 C-80.49940483 58.23403839 -73.48780437 53.88644954 -65.625 50.75 C-64.201875 50.16025391 -64.201875 50.16025391 -62.75 49.55859375 C-51.35805027 44.97169091 -40.08213775 42.6281774 -27.9375 41.27734375 C-24.87646438 40.79003266 -22.43259707 40.03149791 -19.625 38.75 C-19.625 38.09 -19.625 37.43 -19.625 36.75 C-24.905 36.75 -30.185 36.75 -35.625 36.75 C-35.625 36.42 -35.625 36.09 -35.625 35.75 C-26.50087149 34.13017454 -17.57006915 33.36795425 -8.3125 33.125 C-7.08337891 33.08632812 -5.85425781 33.04765625 -4.58789062 33.0078125 C-1.60039746 32.9148166 1.38710905 32.82897509 4.375 32.75 C4.705 31.1 5.035 29.45 5.375 27.75 C4.529375 27.255 3.68375 26.76 2.8125 26.25 C-1.79138665 23.2026655 -6.14535291 18.70929418 -8.625 13.75 C-9.13713521 9.31149484 -8.89565397 7.21518652 -6.625 3.3125 C-3.625 0.75 -3.625 0.75 0 0 Z " fill="#7C7B8F" transform="translate(345.625,166.25)"/>
<path d="M0 0 C6.98030338 4.91825767 11.65238609 12.21067273 13.95703125 20.37890625 C15.31335994 31.71733818 13.51075079 39.53325155 7.01953125 48.69140625 C2.64353808 54.19140764 -2.06705275 57.80961152 -9.04296875 59.37890625 C-15.30889067 59.91410326 -21.2010738 59.975304 -27.04296875 57.37890625 C-27.04296875 56.71890625 -27.04296875 56.05890625 -27.04296875 55.37890625 C-27.76484375 55.15203125 -28.48671875 54.92515625 -29.23046875 54.69140625 C-35.29638174 51.86064685 -38.03815473 46.98304444 -41.02734375 41.26953125 C-41.90158431 39.42419325 -41.90158431 39.42419325 -43.04296875 38.37890625 C-44.10167065 25.98271316 -43.44494148 16.2128992 -35.26171875 6.19921875 C-26.20237169 -3.37667003 -12.05209278 -6.4173481 0 0 Z " fill="#050576" transform="translate(307.04296875,298.62109375)"/>
<path d="M0 0 C0 0.66 0 1.32 0 2 C0.721875 2.20625 1.44375 2.4125 2.1875 2.625 C8.25879659 5.59318944 10.75908006 10.94951618 13 17 C15.65310259 25.55300905 14.73622501 35.35968451 11.33203125 43.52734375 C7.37122553 50.87980715 1.60524981 56.19401968 -6.1875 59.25 C-13.45936581 60.68053098 -20.51966071 61.26435565 -27.09375 57.37109375 C-35.27624984 51.48573014 -39.71233852 44.90260872 -42 35 C-43.25443145 24.69259159 -42.18136433 16.83734267 -35.75 8.4375 C-30.88555052 2.39255651 -26.2201329 -1.38213341 -18.46875 -2.7890625 C-11.97515901 -3.34389464 -5.96855292 -2.61929301 0 0 Z " fill="#070877" transform="translate(435,311)"/>
<path d="M0 0 C1.32 0 2.64 0 4 0 C4.226875 0.721875 4.45375 1.44375 4.6875 2.1875 C6.24471644 5.52439237 8.38054709 7.44948006 11 10 C11 10.66 11 11.32 11 12 C11.54140625 12.22300781 12.0828125 12.44601562 12.640625 12.67578125 C15.74970512 14.4207782 18.17868961 16.75300489 20.75 19.1875 C21.81702144 20.1830284 22.88473107 21.17781969 23.953125 22.171875 C24.73139648 22.89793945 24.73139648 22.89793945 25.52539062 23.63867188 C28.09287112 26.00891546 30.74213189 28.28319151 33.38671875 30.56640625 C34.7495916 31.77748213 36.04059207 33.06871618 37.3125 34.375 C39.00922741 36.24210971 39.00922741 36.24210971 42 37 C42 37.66 42 38.32 42 39 C43.32 39.33 44.64 39.66 46 40 C46 40.66 46 41.32 46 42 C46.57492187 42.26683594 47.14984375 42.53367187 47.7421875 42.80859375 C50.07702551 44.04064495 52.03894184 45.44838275 54.125 47.0625 C56.93627263 49.23226195 56.93627263 49.23226195 60 51 C58.56246045 54.31002696 56.77516456 56.43889464 54.1875 58.9375 C51.82040001 61.22769061 49.53791972 63.50506449 47.3125 65.9375 C44.66038602 68.30289896 43.49017038 68.6585157 40 69 C37.203125 68.36328125 37.203125 68.36328125 34.25 67.3125 C32.68765625 66.75755859 32.68765625 66.75755859 31.09375 66.19140625 C26.98928876 64.61077408 22.97286957 62.8861098 19 61 C19.28875 62.12277344 19.5775 63.24554687 19.875 64.40234375 C24.02798226 80.93490468 24.02798226 80.93490468 23 87 C18.51219512 91 18.51219512 91 15 91 C14.89042969 89.83984375 14.78085937 88.6796875 14.66796875 87.484375 C13.70425772 77.79424498 12.59583019 68.32907203 9.32397461 59.09130859 C7.09205192 52.74403246 5.70834666 46.3507187 4.4375 39.75 C4.22134033 38.63971436 4.00518066 37.52942871 3.7824707 36.38549805 C3.1792192 33.25864061 2.58722353 30.12990143 2 27 C1.86142578 26.27570801 1.72285156 25.55141602 1.58007812 24.80517578 C0.01313494 16.49904898 -0.22782408 8.44214783 0 0 Z " fill="#67667C" transform="translate(491,474)"/>
<path d="M0 0 C1.90966553 0.00797607 1.90966553 0.00797607 3.85791016 0.01611328 C16.48139465 0.14210889 28.90735021 0.6325609 41.0625 4.25 C44.52324424 4.99521099 47.99177974 5.68587819 51.46484375 6.37109375 C54.78984249 7.18338986 57.82370963 8.21467353 61.00268555 9.45385742 C63.07033699 10.25302909 65.15067726 10.99187518 67.24609375 11.71484375 C74.6672535 14.28274881 81.95321512 16.88924715 89.0625 20.25 C89.0625 20.91 89.0625 21.57 89.0625 22.25 C90.3 22.58 91.5375 22.91 92.8125 23.25 C99.30026931 25.41597941 104.53504908 29.3099196 110.0625 33.25 C111.00609375 33.90484375 111.9496875 34.5596875 112.921875 35.234375 C118.54067055 39.20245096 123.70890692 43.46688436 128.7578125 48.13671875 C130.85211929 50.05709159 132.99658542 51.87933556 135.1875 53.6875 C136.13625 54.533125 137.085 55.37875 138.0625 56.25 C138.0625 56.91 138.0625 57.57 138.0625 58.25 C134.36016433 56.57768896 131.23262295 54.29966646 127.9375 51.9375 C122.55568418 48.13159613 117.08893035 44.95713237 111.0625 42.25 C111.0625 41.59 111.0625 40.93 111.0625 40.25 C110.35480469 40.14300781 109.64710938 40.03601563 108.91796875 39.92578125 C105.73547689 39.17260602 103.26554732 37.96188744 100.375 36.4375 C95.7997806 34.08821455 91.23201753 32.03009473 86.43359375 30.1875 C84.05691239 29.24779073 81.75457513 28.20234091 79.4375 27.125 C75.36986227 25.28522039 71.40559582 24.26338902 67.0625 23.25 C65.88494141 22.77433594 65.88494141 22.77433594 64.68359375 22.2890625 C61.93754861 21.20046636 59.24273605 20.45449056 56.375 19.75 C55.42238281 19.5128125 54.46976563 19.275625 53.48828125 19.03125 C49.90987691 18.21519428 46.32309091 17.48158642 42.72143555 16.77636719 C41.00026686 16.43564185 39.28141668 16.08289231 37.56567383 15.71582031 C21.90561972 12.42338577 6.50644733 11.83964488 -9.4375 11.8125 C-10.90479553 11.80364777 -10.90479553 11.80364777 -12.4017334 11.7946167 C-25.21512031 11.74227663 -37.38877228 12.6297913 -49.9375 15.25 C-51.01112793 15.46986572 -52.08475586 15.68973145 -53.19091797 15.91625977 C-55.84670568 16.48892962 -58.48566169 17.10625895 -61.125 17.75 C-61.98673828 17.94980469 -62.84847656 18.14960938 -63.73632812 18.35546875 C-68.74554635 19.55706884 -73.26672794 21.07588104 -77.9375 23.25 C-81.57836238 24.94342436 -83.11880012 25.37551154 -86.9375 24.25 C-79.81190483 19.73403839 -72.80030437 15.38644954 -64.9375 12.25 C-63.98875 11.85683594 -63.04 11.46367187 -62.0625 11.05859375 C-50.81460248 6.52969271 -39.76149041 4.18161178 -27.73828125 2.77734375 C-24.85822615 2.3777472 -22.17385525 1.85352483 -19.3515625 1.20703125 C-12.91806168 -0.10842744 -6.54455183 -0.04910352 0 0 Z " fill="#BBB9C6" transform="translate(344.9375,204.75)"/>
<path d="M0 0 C8.12582919 0.91743233 15.54514742 5.30009399 20.875 11.4375 C24.04628065 14.13308855 27.26193203 16.37288973 30.875 18.4375 C30.50924618 24.16764311 28.96450403 27.42921722 25.0625 31.5 C24.33522705 32.27706299 24.33522705 32.27706299 23.59326172 33.06982422 C18.74586333 37.99473138 13.27286894 40.88935163 6.875 43.4375 C6.02421875 43.80875 5.1734375 44.18 4.296875 44.5625 C-0.85558171 46.42403275 -5.51988874 46.0795445 -10.5625 44.0625 C-17.92734056 39.22717243 -24.36978469 32.39855646 -28.125 24.4375 C-28.7025 23.261875 -29.28 22.08625 -29.875 20.875 C-31.13458242 17.41114834 -31.54889276 15.08297774 -31.125 11.4375 C-28.81226634 9.12476634 -27.14133073 8.61042832 -24.0625 7.5625 C-20.38532597 6.27741431 -16.84062268 4.90005738 -13.3125 3.25 C-8.86882618 1.23732358 -4.7994598 0.67192437 0 0 Z " fill="#EAA83D" transform="translate(355.125,335.5625)"/>
<path d="M0 0 C1.77459143 1.27905493 3.52540468 2.59179304 5.25 3.9375 C6.10078125 4.57042969 6.9515625 5.20335937 7.828125 5.85546875 C10.6243959 7.97071238 13.37003583 10.04888754 15.83984375 12.54296875 C17.74243267 14.42447635 19.95250729 15.5825684 22.25 16.9375 C24.25 18.9375 24.25 18.9375 24.8125 22.375 C24.60397595 29.55604685 19.68125728 35.38386399 14.921875 40.3828125 C8.61632769 46.20813601 8.61632769 46.20813601 4.25 46.9375 C4.25 47.5975 4.25 48.2575 4.25 48.9375 C-12.64644319 56.07001495 -12.64644319 56.07001495 -20.75 53.9375 C-34.12469868 48.48571806 -42.77224771 37.62823614 -48.75 24.9375 C-50.11750105 20.68736889 -50.42129427 16.352247 -49.75 11.9375 C-46.65507346 7.34502836 -42.96570432 6.04016178 -37.8359375 4.61328125 C-35.48239588 3.95500772 -35.48239588 3.95500772 -32.75 1.9375 C-31.203125 1.69 -31.203125 1.69 -29.625 1.4375 C-28.67625 1.2725 -27.7275 1.1075 -26.75 0.9375 C-26.42 0.2775 -26.09 -0.3825 -25.75 -1.0625 C-17.32127907 -4.51061311 -7.83011573 -4.90481968 0 0 Z M-34.734375 9.5 C-36.65435978 10.41522591 -38.60178511 11.27633165 -40.578125 12.0625 C-42.69267691 12.74963019 -42.69267691 12.74963019 -43.75 13.9375 C-43.86551144 24.4952452 -39.05131485 31.1294426 -32.06640625 38.59765625 C-25.16420754 45.59110354 -25.16420754 45.59110354 -15.9375 48.375 C-5.3818035 48.20308312 3.77991915 42.25271392 11.1640625 35.18359375 C15.60025182 30.40679814 17.72796656 27.59342637 18.25 20.9375 C17.65832031 20.55078125 17.06664062 20.1640625 16.45703125 19.765625 C6.10194377 12.9410649 6.10194377 12.9410649 2.9140625 9.4921875 C-1.22659716 5.62368387 -6.74035351 3.18429869 -12.3125 2.5 C-20.58495126 3.55285743 -27.18094058 5.85099787 -34.734375 9.5 Z " fill="#1A176F" transform="translate(367.75,333.0625)"/>
<path d="M0 0 C1.32 0 2.64 0 4 0 C6.22696315 5.54469175 7.73921019 10.82645265 8.7890625 16.69921875 C8.9378183 17.49729446 9.0865741 18.29537018 9.23983765 19.11763 C9.70839843 21.63971298 10.16692442 24.16349389 10.625 26.6875 C10.93942674 28.39140119 11.25452521 30.09517857 11.5703125 31.79882812 C12.14824486 34.91941432 12.7218171 38.04074074 13.29150391 41.1628418 C13.52530762 42.429104 13.75911133 43.69536621 14 45 C14.15388184 45.97428955 14.30776367 46.9485791 14.46630859 47.95239258 C14.64242676 48.62810303 14.81854492 49.30381348 15 50 C17.15097933 51.18028284 17.15097933 51.18028284 20 52 C21.155 52.598125 22.31 53.19625 23.5 53.8125 C28.16754982 56.18613065 33.02626958 57.98373412 37.921875 59.828125 C41.32894546 61.12523304 44.66612442 62.52689219 48 64 C46.5 66.5625 46.5 66.5625 44 69 C36.75150734 69.25887474 30.51180819 65.88315921 24 63 C22.33632398 62.32590481 20.67063867 61.65664957 19 61 C19.28875 62.12277344 19.5775 63.24554687 19.875 64.40234375 C24.02798226 80.93490468 24.02798226 80.93490468 23 87 C18.51219512 91 18.51219512 91 15 91 C14.89042969 89.83984375 14.78085937 88.6796875 14.66796875 87.484375 C13.70425772 77.79424498 12.59583019 68.32907203 9.32397461 59.09130859 C7.09205192 52.74403246 5.70834666 46.3507187 4.4375 39.75 C4.22134033 38.63971436 4.00518066 37.52942871 3.7824707 36.38549805 C3.1792192 33.25864061 2.58722353 30.12990143 2 27 C1.86142578 26.27570801 1.72285156 25.55141602 1.58007812 24.80517578 C0.01313494 16.49904898 -0.22782408 8.44214783 0 0 Z " fill="#0B0C74" transform="translate(491,474)"/>
<path d="M0 0 C3.10493059 2.04337326 5.92799375 4.0959625 8.55859375 6.7265625 C10.54680688 7.12420513 12.54803714 7.46431599 14.55859375 7.7265625 C13.97520521 11.66443511 12.3158777 13.89857897 9.55859375 16.7265625 C6.99160044 18.31930248 4.33573897 19.54641112 1.55859375 20.7265625 C0.58921875 21.1596875 -0.38015625 21.5928125 -1.37890625 22.0390625 C-5.60576481 22.98794912 -9.26300388 22.90927602 -13.44140625 21.7265625 C-16.06640625 19.6640625 -16.06640625 19.6640625 -18.44140625 16.7265625 C-19.34246094 15.78683594 -19.34246094 15.78683594 -20.26171875 14.828125 C-23.9194495 10.96307347 -26.30210536 8.29859795 -26.44140625 2.7265625 C-25.46300781 2.54480469 -25.46300781 2.54480469 -24.46484375 2.359375 C-20.64001393 1.62600055 -16.98739876 0.9231198 -13.31640625 -0.3984375 C-8.38952277 -1.89792378 -4.59011806 -2.39420558 0 0 Z " fill="#0E096E" transform="translate(360.44140625,351.2734375)"/>
<path d="M0 0 C0.33 1.32 0.66 2.64 1 4 C4.3 4.66 7.6 5.32 11 6 C11 6.94875 11 7.8975 11 8.875 C11.82159761 14.70953379 16.0441281 18.90494001 20 23 C23.56703794 25.65630485 25.98670713 26.20692655 30.3125 25.9375 C37.8147761 24.76092044 44.10753317 21.93026282 49 16 C49.309375 15.278125 49.61875 14.55625 49.9375 13.8125 C51 12 51 12 53.875 10.75 C57 10 57 10 61 10 C61.33 9.01 61.66 8.02 62 7 C61.63424618 12.73014311 60.08950403 15.99171722 56.1875 20.0625 C55.70265137 20.58054199 55.21780273 21.09858398 54.71826172 21.63232422 C49.87086333 26.55723138 44.39786894 29.45185163 38 32 C37.14921875 32.37125 36.2984375 32.7425 35.421875 33.125 C30.26941829 34.98653275 25.60511126 34.6420445 20.5625 32.625 C13.19765944 27.78967243 6.75521531 20.96105646 3 13 C2.4225 11.824375 1.845 10.64875 1.25 9.4375 C0.00400445 6.01101225 -0.26395412 3.60737295 0 0 Z " fill="#D08633" transform="translate(324,347)"/>
<path d="M0 0 C4.3721877 2.22584101 4.3721877 2.22584101 6 5 C6.79945323 9.13431525 6.78482018 12.86394038 6 17 C3.625 20.125 3.625 20.125 1 22 C0.34 22.66 -0.32 23.32 -1 24 C-4.3125 24.5 -4.3125 24.5 -8 24 C-10.66113074 21.79254804 -12.4538796 19.09224081 -14 16 C-14.40282133 10.76332273 -13.83087029 7.44851046 -11 3 C-7.69451332 -0.54159288 -4.69830602 -0.64804221 0 0 Z " fill="#EEF2F5" transform="translate(304,311)"/>
<path d="M0 0 C4.57793505 0.5182568 6.04473754 2.18323201 9.3125 5.375 C11.17483425 9.09966849 10.88380829 13.31995313 10.3125 17.375 C8.6404253 20.50078143 6.5268765 22.76781175 3.3125 24.375 C0.5 24.75 0.5 24.75 -2.6875 24.375 C-5.91231015 21.73651897 -8.12242643 19.22693906 -9.6875 15.375 C-10.03056516 10.45773268 -9.36146013 7.18375216 -6.1875 3.375 C-5.3625 2.715 -4.5375 2.055 -3.6875 1.375 C-2.6875 0.375 -2.6875 0.375 0 0 Z " fill="#F2F3F7" transform="translate(413.6875,321.625)"/>
<path d="M0 0 C3.3 1.65 6.6 3.3 10 5 C10 5.66 10 6.32 10 7 C11.16015625 7.27263672 11.16015625 7.27263672 12.34375 7.55078125 C21.89051543 9.85476548 21.89051543 9.85476548 26.125 11.5625 C30.61040695 13.36044793 35.25439777 14.17340945 40 15 C40 19.38968456 37.87194899 20.76905739 35 24 C30.66669916 22.27733532 26.33627375 20.5477642 22.00976562 18.80810547 C20.19977272 18.08032649 18.3889969 17.35449533 16.578125 16.62890625 C1.80557769 10.61115538 1.80557769 10.61115538 0 7 C-0.04022391 4.6670134 -0.04320247 2.33293334 0 0 Z " fill="#74798D" transform="translate(505,515)"/>
<path d="M0 0 C3.92108692 0.63915153 7.24078192 1.84693962 10.875 3.4375 C15.21901055 5.29308969 19.42132924 6.85533231 24 8 C17.84379863 14.34858266 11.28897443 19.98883008 4 25 C0.74031891 8.29157175 0.74031891 8.29157175 0 0 Z " fill="#82ABF7" transform="translate(510,535)"/>
<path d="M0 0 C1.216875 0.12375 2.43375 0.2475 3.6875 0.375 C3.6875 0.705 3.6875 1.035 3.6875 1.375 C2.57375 1.478125 1.46 1.58125 0.3125 1.6875 C-0.88375 1.914375 -2.08 2.14125 -3.3125 2.375 C-4.3025 3.86 -4.3025 3.86 -5.3125 5.375 C-5.9725 5.375 -6.6325 5.375 -7.3125 5.375 C-6.9825 6.365 -6.6525 7.355 -6.3125 8.375 C-5.6525 8.54 -4.9925 8.705 -4.3125 8.875 C-3.6525 9.04 -2.9925 9.205 -2.3125 9.375 C-1.9825 10.365 -1.6525 11.355 -1.3125 12.375 C-0.6525 12.705 0.0075 13.035 0.6875 13.375 C0.6875 14.035 0.6875 14.695 0.6875 15.375 C1.409375 15.643125 2.13125 15.91125 2.875 16.1875 C5.66872462 17.36707262 8.09116234 18.8171974 10.6875 20.375 C12.34119357 21.07322617 14.00477014 21.74998605 15.6875 22.375 C15.6875 23.035 15.6875 23.695 15.6875 24.375 C17.3375 24.705 18.9875 25.035 20.6875 25.375 C20.3575 26.365 20.0275 27.355 19.6875 28.375 C12.00000428 28.68877534 5.05705953 28.15216965 -1.3125 23.375 C-9.09283062 15.27880125 -9.09283062 15.27880125 -9.6875 10.125 C-9.07696725 4.0196725 -6.37688909 0.01132662 0 0 Z " fill="#6A6A84" transform="translate(346.3125,166.625)"/>
<path d="M0 0 C0.33 1.32 0.66 2.64 1 4 C4.3 4.66 7.6 5.32 11 6 C11 6.94875 11 7.8975 11 8.875 C11.86424055 15.37674811 17.53792427 20.53792427 22 25 C20.68 25.33 19.36 25.66 18 26 C18 26.99 18 27.98 18 29 C19.98 29 21.96 29 24 29 C23.67 29.99 23.34 30.98 23 32 C23.66 32 24.32 32 25 32 C24.67 32.66 24.34 33.32 24 34 C14.8856493 29.64096271 7.31213323 22.14172245 3 13 C2.4225 11.824375 1.845 10.64875 1.25 9.4375 C0.00400445 6.01101225 -0.26395412 3.60737295 0 0 Z " fill="#C98230" transform="translate(324,347)"/>
<path d="M0 0 C3.78380671 0.14014099 6.26539617 0.51026412 9.4375 2.625 C11.59452825 5.90368294 11.41974413 8.15234549 11 12 C10.01 13.485 10.01 13.485 9 15 C5.625 15.5625 5.625 15.5625 2 15 C-1.09157128 11.74988661 -1.92864397 9.71356028 -2.375 5.25 C-2 2 -2 2 0 0 Z " fill="#4E56A4" transform="translate(275,330)"/>
<path d="M0 0 C2 3 2 3 1.75 6.5 C1 10 1 10 -1 13 C-1.66 13 -2.32 13 -3 13 C-3 13.66 -3 14.32 -3 15 C-5.875 15.125 -5.875 15.125 -9 15 C-11.38125912 12.61874088 -11.34521641 11.89292462 -11.4375 8.625 C-11.35183607 5.07851319 -11.22734772 4.2741546 -8.875 1.4375 C-5.57210489 -0.21394755 -3.64248948 -0.56660947 0 0 Z " fill="#4E56A2" transform="translate(437,345)"/>
<path d="M0 0 C0 1.65 0 3.3 0 5 C-12.375 5.495 -12.375 5.495 -25 6 C-25 5.34 -25 4.68 -25 4 C-30.28 4 -35.56 4 -41 4 C-41 3.67 -41 3.34 -41 3 C-31.89654776 1.38536101 -22.98640933 0.61833021 -13.75 0.375 C-12.52925781 0.33632812 -11.30851562 0.29765625 -10.05078125 0.2578125 C-1.79157366 0 -1.79157366 0 0 0 Z " fill="#72708B" transform="translate(351,199)"/>
<path d="M0 0 C-3 2 -3 2 -6 2 C-6 2.66 -6 3.32 -6 4 C-4.35 4 -2.7 4 -1 4 C-1.639375 4.309375 -2.27875 4.61875 -2.9375 4.9375 C-4.93610821 5.8345163 -4.93610821 5.8345163 -6 7 C-5.91015699 8.85772162 -5.75388139 10.71247985 -5.5625 12.5625 C-5.46066406 13.57441406 -5.35882813 14.58632813 -5.25390625 15.62890625 C-5.17011719 16.41136719 -5.08632813 17.19382812 -5 18 C-5.99 17.01 -6.98 16.02 -8 15 C-8 17.31 -8 19.62 -8 22 C-8.66 22 -9.32 22 -10 22 C-12.45077239 16.38364661 -14.28067575 11.16839236 -13 5 C-9.08149785 -0.08346225 -6.19280948 -1.50635906 0 0 Z " fill="#1B1B72" transform="translate(331,340)"/>
<path d="M0 0 C0.495 0.99 0.495 0.99 1 2 C0.26394531 1.97679687 -0.47210938 1.95359375 -1.23046875 1.9296875 C-2.69419922 1.90261719 -2.69419922 1.90261719 -4.1875 1.875 C-5.63189453 1.84019531 -5.63189453 1.84019531 -7.10546875 1.8046875 C-10.12812778 2.0086456 -12.26769985 2.73125368 -15 4 C-15 4.66 -15 5.32 -15 6 C-19.455 6.495 -19.455 6.495 -24 7 C-24 7.66 -24 8.32 -24 9 C-23.01 8.34 -22.02 7.68 -21 7 C-18.3125 6.875 -18.3125 6.875 -16 7 C-22.88036408 11.58690938 -28.60134273 14.77765345 -37 14 C-37 13.34 -37 12.68 -37 12 C-36.278125 11.773125 -35.55625 11.54625 -34.8125 11.3125 C-31.8223758 10.12553355 -31.8223758 10.12553355 -29.5625 7.4375 C-26.60227484 4.62167607 -24.959468 4.44993955 -21 4 C-20.67 3.34 -20.34 2.68 -20 2 C-13.50719118 -0.65614906 -6.91719362 -0.18723231 0 0 Z " fill="#170F73" transform="translate(362,330)"/>
<path d="M0 0 C0 0.66 0 1.32 0 2 C-3.63 2.99 -7.26 3.98 -11 5 C-11.33 6.65 -11.66 8.3 -12 10 C-15.04567632 12.28425724 -18.37070827 13.85390788 -22 15 C-22.99 14.67 -23.98 14.34 -25 14 C-25.66 14 -26.32 14 -27 14 C-28.33783393 13.68521554 -29.67203709 13.35412344 -31 13 C-25.83708258 9.38244562 -20.92708223 6.2482036 -15 4 C-14.09636719 3.64808594 -13.19273437 3.29617187 -12.26171875 2.93359375 C-4.54442509 0 -4.54442509 0 0 0 Z " fill="#74738F" transform="translate(294,207)"/>
<path d="M0 0 C3.6875 1.5 3.6875 1.5 6 3 C5.67 3.99 5.34 4.98 5 6 C0.9597248 7.78523788 -2.61409946 8.6396105 -7 8 C-9.37800416 6.53953626 -10.9955113 5.0044887 -13 3 C-13 2.34 -13 1.68 -13 1 C-9.08185342 -0.95907329 -4.28079274 -0.36124833 0 0 Z " fill="#EF636A" transform="translate(357,360)"/>
<path d="M0 0 C0.33 1.32 0.66 2.64 1 4 C2.423125 4.2165625 2.423125 4.2165625 3.875 4.4375 C7 5 7 5 9 6 C9 8.64 9 11.28 9 14 C9.66 14 10.32 14 11 14 C10.67 15.65 10.34 17.3 10 19 C9.34 19 8.68 19 8 19 C8 18.34 8 17.68 8 17 C7.38640625 16.93167969 6.7728125 16.86335938 6.140625 16.79296875 C4 16 4 16 2.734375 13.92578125 C0.93666299 9.15328388 -0.54676782 5.1942943 0 0 Z " fill="#DA892B" transform="translate(324,347)"/>
<path d="M0 0 C1.65 0 3.3 0 5 0 C5 0.66 5 1.32 5 2 C8.3 2 11.6 2 15 2 C15 2.66 15 3.32 15 4 C12.2173829 6.7826171 9.89667775 6.40930664 6.09375 6.65625 C3.78487741 6.82631807 3.78487741 6.82631807 2 9 C0.01178687 9.39764263 -1.98944339 9.73775349 -4 10 C-4.33 8.68 -4.66 7.36 -5 6 C-4.01 5.67 -3.02 5.34 -2 5 C-0.78130071 2.49552484 -0.78130071 2.49552484 0 0 Z " fill="#02056D" transform="translate(338,161)"/>
<path d="M0 0 C1.5 1.375 1.5 1.375 3 3 C3 3.66 3 4.32 3 5 C3.66 5 4.32 5 5 5 C6.88584216 8.77168432 6.64000279 12.9027859 6 17 C3.65173332 21.56649905 0.3549742 25.26112951 -4 28 C-7.25 27.6875 -7.25 27.6875 -10 27 C-10 26.01 -10 25.02 -10 24 C-8.14375 23.6596875 -8.14375 23.6596875 -6.25 23.3125 C-3.29579787 22.54252179 -1.94593617 21.95674893 0.5 20 C2.66666577 15.66666846 2.6886835 11.75817694 2 7 C0.5769016 4.09369632 0.5769016 4.09369632 -1 2 C-0.67 1.34 -0.34 0.68 0 0 Z " fill="#19166F" transform="translate(421,322)"/>
<path d="M0 0 C0.66 0.33 1.32 0.66 2 1 C2.64330109 14.56293135 0.63882922 22.43183226 -8 33 C-8.6875 31.1875 -8.6875 31.1875 -9 29 C-7.6953125 27.5546875 -7.6953125 27.5546875 -6 26 C-2.51972197 19.11144969 -1.49383813 12.29479611 -1.17578125 4.65234375 C-1 2 -1 2 0 0 Z " fill="#2E2B81" transform="translate(319,318)"/>
<path d="M0 0 C0.66 0 1.32 0 2 0 C2.04898437 1.13179688 2.09796875 2.26359375 2.1484375 3.4296875 C2.22346514 4.91148339 2.29901297 6.393253 2.375 7.875 C2.4059375 8.62136719 2.436875 9.36773437 2.46875 10.13671875 C2.55643831 14.53473188 2.55643831 14.53473188 5 18 C5.81640625 19.83984375 5.81640625 19.83984375 6.5625 21.9375 C6.81128906 22.62714844 7.06007813 23.31679688 7.31640625 24.02734375 C7.88940471 25.68085359 8.44660846 27.33982537 9 29 C11.00016466 30.20882096 11.00016466 30.20882096 13 31 C13 31.99 13 32.98 13 34 C7.72149719 31.58697015 5.74854939 27.84099344 3 23 C2.45988281 22.28199219 1.91976563 21.56398438 1.36328125 20.82421875 C-0.59577014 16.76578279 -0.32415735 13.12711172 -0.1875 8.6875 C-0.17396484 7.85154297 -0.16042969 7.01558594 -0.14648438 6.15429688 C-0.11131217 4.10258502 -0.05751048 2.05120725 0 0 Z " fill="#403D78" transform="translate(264,319)"/>
<path d="M0 0 C9.83711825 -0.4651527 9.83711825 -0.4651527 14.125 1.25 C16.18075889 3.1687083 16.71364159 4.23186874 17 7 C18.98 7 20.96 7 23 7 C19.777893 10.8665284 16.85077588 11.88059018 12 13 C11.67 12.01 11.34 11.02 11 10 C8.69 10 6.38 10 4 10 C7.22515763 8.26337666 10.51329166 7.1094072 14 6 C14 5.34 14 4.68 14 4 C9.44508386 1.79600832 4.97093824 1.41153737 0 1 C0 0.67 0 0.34 0 0 Z " fill="#3F1964" transform="translate(348,359)"/>
<path d="M0 0 C0.66 0.33 1.32 0.66 2 1 C2 1.99 2 2.98 2 4 C2.99 4.66 3.98 5.32 5 6 C-10.34672304 12.47832981 -10.34672304 12.47832981 -18 12 C-18.33 11.01 -18.66 10.02 -19 9 C-17.89591797 8.92652344 -17.89591797 8.92652344 -16.76953125 8.8515625 C-15.30580078 8.73941406 -15.30580078 8.73941406 -13.8125 8.625 C-12.84957031 8.55539062 -11.88664062 8.48578125 -10.89453125 8.4140625 C-7.98491062 7.99784147 -5.67109226 7.20125904 -3 6 C-3 5.67 -3 5.34 -3 5 C-4.65 4.67 -6.3 4.34 -8 4 C-5.31143836 2.20762558 -3.0466145 1.01553817 0 0 Z " fill="#27256D" transform="translate(367,376)"/>
<path d="M0 0 C1.09054687 0.38285156 2.18109375 0.76570313 3.3046875 1.16015625 C4.94824219 1.73056641 4.94824219 1.73056641 6.625 2.3125 C7.46804688 2.61285156 8.31109375 2.91320312 9.1796875 3.22265625 C9.1796875 3.88265625 9.1796875 4.54265625 9.1796875 5.22265625 C10.4996875 5.22265625 11.8196875 5.22265625 13.1796875 5.22265625 C13.1796875 4.56265625 13.1796875 3.90265625 13.1796875 3.22265625 C19.13671875 1.46484375 19.13671875 1.46484375 21.1796875 1.22265625 C22.1696875 1.88265625 23.1596875 2.54265625 24.1796875 3.22265625 C16.94876553 6.22214981 9.3745998 7.99308236 1.73828125 5.390625 C-3.48335598 2.89656929 -3.48335598 2.89656929 -4.8203125 0.22265625 C-2.8203125 -0.77734375 -2.8203125 -0.77734375 0 0 Z " fill="#2F2D7D" transform="translate(409.8203125,364.77734375)"/>
<path d="M0 0 C0.66 0 1.32 0 2 0 C2.5 2.1875 2.5 2.1875 2 5 C-1.27426765 7.94763754 -4.60737515 9.85493491 -9 10.3125 C-9.99 10.1578125 -9.99 10.1578125 -11 10 C-11.33 9.01 -11.66 8.02 -12 7 C-6.83076923 2.07692308 -6.83076923 2.07692308 -2.625 1.6875 C-1.75875 1.790625 -0.8925 1.89375 0 2 C0 1.34 0 0.68 0 0 Z " fill="#19146D" transform="translate(378,371)"/>
<path d="M0 0 C4.83256305 0.41421969 6.82679218 2.46413986 10 6 C9.34 6 8.68 6 8 6 C8 7.65 8 9.3 8 11 C6.68 10.34 5.36 9.68 4 9 C4 8.34 4 7.68 4 7 C3.2575 6.731875 2.515 6.46375 1.75 6.1875 C-0.86636554 5.05770579 -2.80187111 3.79106798 -5 2 C-3.35 2 -1.7 2 0 2 C0 1.34 0 0.68 0 0 Z " fill="#110E69" transform="translate(367,335)"/>
<path d="M0 0 C0.33 0 0.66 0 1 0 C1.33 4.62 1.66 9.24 2 14 C-3.75 18 -3.75 18 -6 18 C-6.3125 14.8125 -6.3125 14.8125 -6 11 C-4.37550757 9.29220027 -2.70779973 7.62449243 -1 6 C-0.12010026 2.81849108 -0.12010026 2.81849108 0 0 Z " fill="#6A6480" transform="translate(505,552)"/>
<path d="M0 0 C0 0.33 0 0.66 0 1 C-0.55985596 0.98952637 -1.11971191 0.97905273 -1.6965332 0.96826172 C-4.23514307 0.92666674 -6.7736812 0.90066315 -9.3125 0.875 C-10.19357422 0.85824219 -11.07464844 0.84148437 -11.98242188 0.82421875 C-13.25375977 0.81455078 -13.25375977 0.81455078 -14.55078125 0.8046875 C-15.33106689 0.79421387 -16.11135254 0.78374023 -16.9152832 0.77294922 C-19.3065848 0.87119141 -19.3065848 0.87119141 -22 3 C-23.32 2.34 -24.64 1.68 -26 1 C-18.28846703 -3.40659027 -8.05435625 -3.81442155 0 0 Z " fill="#2A2A7C" transform="translate(305,298)"/>
<path d="M0 0 C4.64980861 1.67429508 8.79189493 4.04958866 13.0625 6.5 C14.4695649 7.30293767 15.87710254 8.1050476 17.28515625 8.90625 C18.21146851 9.43702148 18.21146851 9.43702148 19.15649414 9.97851562 C21.07828366 11.04337688 23.02851436 12.03072934 25 13 C25 13.99 25 14.98 25 16 C20.36732128 14.32280712 16.20830269 11.9856227 11.9375 9.5625 C11.23044922 9.16740234 10.52339844 8.77230469 9.79492188 8.36523438 C2.56520967 4.28536861 2.56520967 4.28536861 0 2 C0 1.34 0 0.68 0 0 Z " fill="#E6E3E9" transform="translate(187,564)"/>
<path d="M0 0 C2.475 0.495 2.475 0.495 5 1 C5 1.66 5 2.32 5 3 C5.84304688 3.12117188 6.68609375 3.24234375 7.5546875 3.3671875 C8.65039062 3.53476562 9.74609375 3.70234375 10.875 3.875 C11.96554687 4.03742188 13.05609375 4.19984375 14.1796875 4.3671875 C17 5 17 5 19 7 C16.69 7 14.38 7 12 7 C12.33 7.99 12.66 8.98 13 10 C11.35 10 9.7 10 8 10 C8 9.34 8 8.68 8 8 C7.34 8 6.68 8 6 8 C6 7.34 6 6.68 6 6 C4.35 5.67 2.7 5.34 1 5 C0.67 3.35 0.34 1.7 0 0 Z " fill="#E7901A" transform="translate(341,371)"/>
<path d="M0 0 C0 1.32 0 2.64 0 4 C-0.66 4 -1.32 4 -2 4 C-2 4.66 -2 5.32 -2 6 C-2.66 6 -3.32 6 -4 6 C-4.33 7.32 -4.66 8.64 -5 10 C-6.98 10 -8.96 10 -11 10 C-11 8.68 -11 7.36 -11 6 C-9.1015625 4.296875 -9.1015625 4.296875 -6.625 2.75 C-5.81289063 2.22921875 -5.00078125 1.7084375 -4.1640625 1.171875 C-2 0 -2 0 0 0 Z " fill="#E18C1F" transform="translate(377,364)"/>
<path d="M0 0 C0.33 0 0.66 0 1 0 C1.33 1.98 1.66 3.96 2 6 C2.33 6 2.66 6 3 6 C3.11039334 14.40215965 2.95458649 22.64736824 2 31 C2.66 31 3.32 31 4 31 C3.67 33.31 3.34 35.62 3 38 C2.67 38 2.34 38 2 38 C-0.49057093 25.36924742 -0.20534438 12.81664856 0 0 Z " fill="#172986" transform="translate(118,309)"/>
<path d="M0 0 C3.3 0.66 6.6 1.32 10 2 C10.33 2.99 10.66 3.98 11 5 C7.11760547 7.27649498 4.48680469 7.1401255 0.12890625 6.55859375 C-2.77903383 5.79559296 -4.2314031 4.38376103 -6 2 C-4.02 2 -2.04 2 0 2 C0 1.34 0 0.68 0 0 Z " fill="#26145E" transform="translate(349,367)"/>
<path d="M0 0 C-1.33333333 0.66666667 -2.66666667 1.33333333 -4 2 C-4.58523438 2.34804688 -5.17046875 2.69609375 -5.7734375 3.0546875 C-11.22190897 5.3678982 -18.17279817 4.48725382 -23.75 3 C-24.86375 2.505 -24.86375 2.505 -26 2 C-21.89955394 0.91453745 -17.76650063 0.38479342 -13.5625 -0.125 C-12.81162109 -0.22425781 -12.06074219 -0.32351563 -11.28710938 -0.42578125 C-7.27793316 -0.91238311 -3.9527352 -1.11588151 0 0 Z " fill="#373384" transform="translate(306,354)"/>
<path d="M0 0 C0.33 0 0.66 0 1 0 C1.02699725 2.27076842 1.04639453 4.54162821 1.0625 6.8125 C1.07410156 8.07707031 1.08570313 9.34164063 1.09765625 10.64453125 C1 14 1 14 0 17 C1.65 17.33 3.3 17.66 5 18 C4.01 18.66 3.02 19.32 2 20 C-1.19240449 22.53514474 -1.93171379 23.65856896 -2.75 27.75 C-2.8325 28.8225 -2.915 29.895 -3 31 C-3.33 31 -3.66 31 -4 31 C-4.12375 30.195625 -4.2475 29.39125 -4.375 28.5625 C-4.58125 27.716875 -4.7875 26.87125 -5 26 C-5.66 25.67 -6.32 25.34 -7 25 C-6.566875 24.505 -6.13375 24.01 -5.6875 23.5 C-0.73066375 16.15653889 -0.38170064 8.63433179 0 0 Z " fill="#CFD5E3" transform="translate(321,321)"/>
<path d="M0 0 C0.33 0.66 0.66 1.32 1 2 C0.26394531 1.97679687 -0.47210938 1.95359375 -1.23046875 1.9296875 C-2.69419922 1.90261719 -2.69419922 1.90261719 -4.1875 1.875 C-5.63189453 1.84019531 -5.63189453 1.84019531 -7.10546875 1.8046875 C-10.12812778 2.0086456 -12.26769985 2.73125368 -15 4 C-15 4.66 -15 5.32 -15 6 C-16.78871178 6.38885039 -18.58112874 6.76069196 -20.375 7.125 C-21.37273437 7.33382813 -22.37046875 7.54265625 -23.3984375 7.7578125 C-24.25695312 7.83773438 -25.11546875 7.91765625 -26 8 C-26.66 7.34 -27.32 6.68 -28 6 C-26.865625 5.71125 -25.73125 5.4225 -24.5625 5.125 C-23.386875 4.75375 -22.21125 4.3825 -21 4 C-20.67 3.34 -20.34 2.68 -20 2 C-13.50719118 -0.65614906 -6.91719362 -0.18723231 0 0 Z " fill="#1F1B76" transform="translate(362,330)"/>
<path d="M0 0 C4.75612527 3.60809503 5.60804595 8.47436423 7 14 C6.01 14 5.02 14 4 14 C3.34 13.34 2.68 12.68 2 12 C1.46375 11.62875 0.9275 11.2575 0.375 10.875 C-1.90748996 7.76251369 -1.24385383 4.77973443 -1 1 C-0.67 0.67 -0.34 0.34 0 0 Z " fill="#1A106A" transform="translate(323,354)"/>
<path d="M0 0 C3.39192363 0.59283621 5.2107757 1.76743189 7.75 4.0625 C8.67039062 4.88427734 8.67039062 4.88427734 9.609375 5.72265625 C10.29773438 6.35494141 10.29773438 6.35494141 11 7 C10.67 8.32 10.34 9.64 10 11 C9.01 10.67 8.02 10.34 7 10 C7 9.01 7 8.02 7 7 C4.03 6.01 1.06 5.02 -2 4 C-1.34 2.68 -0.68 1.36 0 0 Z " fill="#0E0A72" transform="translate(335,373)"/>
<path d="M0 0 C0.33 0 0.66 0 1 0 C1.03738281 0.73863281 1.07476562 1.47726562 1.11328125 2.23828125 C1.5832048 9.48984667 2.83056503 16.06872349 5 23 C4.01 22.34 3.02 21.68 2 21 C1.34 21.99 0.68 22.98 0 24 C-0.309375 22.88625 -0.61875 21.7725 -0.9375 20.625 C-1.82326483 17.2054845 -1.82326483 17.2054845 -3 15 C-2.01 15 -1.02 15 0 15 C0 10.05 0 5.1 0 0 Z " fill="#C4C8DD" transform="translate(392,334)"/>
<path d="M0 0 C1.32 0.33 2.64 0.66 4 1 C3.360625 1.474375 2.72125 1.94875 2.0625 2.4375 C-0.85860535 6.0667521 -1.1029579 9.4144135 -1 14 C-0.1950483 17.42825684 -0.1950483 17.42825684 1 20 C-1.48046875 18.88671875 -1.48046875 18.88671875 -4 17 C-4.48828125 14.08203125 -4.48828125 14.08203125 -4.3125 10.8125 C-4.26738281 9.72582031 -4.22226562 8.63914062 -4.17578125 7.51953125 C-4.11777344 6.68808594 -4.05976563 5.85664063 -4 5 C-3.01 4.67 -2.02 4.34 -1 4 C-0.26676204 1.98491642 -0.26676204 1.98491642 0 0 Z " fill="#262776" transform="translate(406,323)"/>
<path d="M0 0 C1.98 0 3.96 0 6 0 C6.33 0.99 6.66 1.98 7 3 C0.92972642 5.1583195 -4.59370576 5.20852314 -11 5 C-11.33 4.34 -11.66 3.68 -12 3 C-6.06 2.505 -6.06 2.505 0 2 C0 1.34 0 0.68 0 0 Z " fill="#06047C" transform="translate(359,380)"/>
<path d="M0 0 C0.33 0 0.66 0 1 0 C1 2.31 1 4.62 1 7 C0.34 7 -0.32 7 -1 7 C-1 11.95 -1 16.9 -1 22 C-3 20 -3 20 -3.23046875 16.375 C-3.22647678 14.9166018 -3.2117184 13.45820257 -3.1875 12 C-3.18685547 11.26265625 -3.18621094 10.5253125 -3.18554688 9.765625 C-3.14050904 4.28101809 -3.14050904 4.28101809 -2 2 C-1.34 2 -0.68 2 0 2 C0 1.34 0 0.68 0 0 Z " fill="#333077" transform="translate(396,326)"/>
<path d="M0 0 C0.33 0 0.66 0 1 0 C2.16896171 4.52972661 2.94024607 9.37640466 2 14 C-2.48780488 18 -2.48780488 18 -6 18 C-6 14.7 -6 11.4 -6 8 C-5.67 8 -5.34 8 -5 8 C-4.67 9.65 -4.34 11.3 -4 13 C-2.68 13 -1.36 13 0 13 C0 8.71 0 4.42 0 0 Z " fill="#282D7E" transform="translate(512,547)"/>
<path d="M0 0 C0.66 0.33 1.32 0.66 2 1 C1.01 1.99 0.02 2.98 -1 4 C-0.67 4.66 -0.34 5.32 0 6 C-1.56159059 6.48212214 -3.12431928 6.96055873 -4.6875 7.4375 C-5.55761719 7.70433594 -6.42773438 7.97117188 -7.32421875 8.24609375 C-9.87025921 8.96344529 -12.4003423 9.517541 -15 10 C-12.0761589 6.81980317 -9.16598831 4.74648691 -5.375 2.6875 C-4.41335938 2.15511719 -3.45171875 1.62273437 -2.4609375 1.07421875 C-1.64882813 0.71972656 -0.83671875 0.36523438 0 0 Z " fill="#AEB0BB" transform="translate(273,220)"/>
<path d="M0 0 C0.33 0 0.66 0 1 0 C1.12375 0.78375 1.2475 1.5675 1.375 2.375 C1.79117993 5.14057822 1.79117993 5.14057822 4 7 C2.35 8.32 0.7 9.64 -1 11 C-1.33 10.34 -1.66 9.68 -2 9 C-1.67 8.34 -1.34 7.68 -1 7 C-1.66 7 -2.32 7 -3 7 C-3 7.66 -3 8.32 -3 9 C-4.32 8.67 -5.64 8.34 -7 8 C-5.85760183 6.66372225 -4.71098945 5.33104612 -3.5625 4 C-2.92441406 3.2575 -2.28632813 2.515 -1.62890625 1.75 C-1.09136719 1.1725 -0.55382812 0.595 0 0 Z " fill="#2D216C" transform="translate(381,364)"/>
<path d="M0 0 C0.66 0.33 1.32 0.66 2 1 C2.144375 1.9075 2.28875 2.815 2.4375 3.75 C3.02624967 7.15166476 4.08367439 9.16717083 6 12 C5.01 12.33 4.02 12.66 3 13 C3 14.65 3 16.3 3 18 C-1.875 14.375 -1.875 14.375 -3 11 C-2.34 11 -1.68 11 -1 11 C-1 11.66 -1 12.32 -1 13 C-0.34 13 0.32 13 1 13 C1.33 11.35 1.66 9.7 2 8 C1.34 8 0.68 8 0 8 C0 5.36 0 2.72 0 0 Z " fill="#B6773C" transform="translate(333,353)"/>
<path d="M0 0 C-0.47482738 4.27344643 -2.99204637 6.13528225 -6 9 C-7.02813611 10.31175986 -8.04084432 11.6369893 -9 13 C-9.99 12.67 -10.98 12.34 -12 12 C-4.57142857 0 -4.57142857 0 0 0 Z " fill="#2D2779" transform="translate(279,300)"/>
<path d="M0 0 C3.465 1.485 3.465 1.485 7 3 C6.67 3.99 6.34 4.98 6 6 C3.69 6.33 1.38 6.66 -1 7 C-0.34 6.67 0.32 6.34 1 6 C1 5.34 1 4.68 1 4 C-0.65 4 -2.3 4 -4 4 C-2.68 2.68 -1.36 1.36 0 0 Z M1 3 C5 4 5 4 5 4 Z " fill="#E56673" transform="translate(356,360)"/>
<path d="M0 0 C2.97 0.33 5.94 0.66 9 1 C9 1.99 9 2.98 9 4 C5.7 4.66 2.4 5.32 -1 6 C-0.67 4.02 -0.34 2.04 0 0 Z " fill="#F3AE2F" transform="translate(376,353)"/>
<path d="M0 0 C2.5 1.5 2.5 1.5 5 4 C5.66418865 6.94733714 5.39241643 8.90972061 5 12 C3.46875 13.74609375 3.46875 13.74609375 2 15 C1.93941406 14.25234375 1.87882812 13.5046875 1.81640625 12.734375 C1.73261719 11.74953125 1.64882813 10.7646875 1.5625 9.75 C1.48128906 8.77546875 1.40007812 7.8009375 1.31640625 6.796875 C1.04925416 4.43538247 0.64628032 2.28098935 0 0 Z " fill="#2D2D79" transform="translate(387,348)"/>
<path d="M0 0 C1.30177876 4.33483265 0.58171443 8.12253817 -0.1875 12.5 C-0.30158203 13.25925781 -0.41566406 14.01851563 -0.53320312 14.80078125 C-1.32486282 19.38999635 -2.16240041 22.01255187 -6 25 C-5.73445312 23.94941406 -5.46890625 22.89882813 -5.1953125 21.81640625 C-3.36816609 14.56308403 -1.56747641 7.31488991 0 0 Z " fill="#BCD7FA" transform="translate(616,400)"/>
<path d="M0 0 C2.02350324 3.03525486 2.32124018 4.19426202 2.625 7.6875 C2.69976562 8.49574219 2.77453125 9.30398438 2.8515625 10.13671875 C2.92503906 11.05904297 2.92503906 11.05904297 3 12 C1.078125 11.69140625 1.078125 11.69140625 -1 11 C-2.25 7.9375 -2.25 7.9375 -3 5 C-2.01 5 -1.02 5 0 5 C0 3.35 0 1.7 0 0 Z " fill="#0D0C67" transform="translate(209,354)"/>
<path d="M0 0 C2.57147284 1.28573642 2.63147834 2.21354542 3.5625 4.875 C3.93568359 5.92300781 3.93568359 5.92300781 4.31640625 6.9921875 C4.88400092 8.65929413 5.44309712 10.32929135 6 12 C8.00016466 13.20882096 8.00016466 13.20882096 10 14 C10 14.99 10 15.98 10 17 C4.88399807 14.66125626 2.26687832 11.01546828 0 6 C-0.3125 2.5 -0.3125 2.5 0 0 Z " fill="#262572" transform="translate(267,336)"/>
<path d="M0 0 C0.66 0.33 1.32 0.66 2 1 C2 1.99 2 2.98 2 4 C2.99 4.66 3.98 5.32 5 6 C3.02 6.66 1.04 7.32 -1 8 C-1 7.34 -1 6.68 -1 6 C-3.31 5.34 -5.62 4.68 -8 4 C-5.31143836 2.20762558 -3.0466145 1.01553817 0 0 Z " fill="#443568" transform="translate(367,376)"/>
<path d="M0 0 C1.485 0.99 1.485 0.99 3 2 C4.9896995 2.39013716 6.99019869 2.73202649 9 3 C8.60196439 5.88575819 8.20990931 6.82189513 5.9375 8.75 C4.9784375 9.36875 4.9784375 9.36875 4 10 C3.34 8.02 2.68 6.04 2 4 C1.01 4.495 1.01 4.495 0 5 C0 3.35 0 1.7 0 0 Z " fill="#1F1263" transform="translate(366,356)"/>
<path d="M0 0 C1.98 0 3.96 0 6 0 C6.33 0.99 6.66 1.98 7 3 C7.66 3 8.32 3 9 3 C9 3.66 9 4.32 9 5 C9.99 5.33 10.98 5.66 12 6 C11.34 6.66 10.68 7.32 10 8 C9.29875 7.360625 8.5975 6.72125 7.875 6.0625 C4.77158767 3.83613898 2.75379861 3.34919057 -1 3 C-0.67 2.01 -0.34 1.02 0 0 Z " fill="#282975" transform="translate(299,308)"/>
<path d="M0 0 C-3.36358439 3.36358439 -7.30160202 3.92695062 -11.90625 4.125 C-14.60713162 4.125 -17.30064828 4.08786317 -20 4 C-20 3.67 -20 3.34 -20 3 C-17.03 3 -14.06 3 -11 3 C-11 2.34 -11 1.68 -11 1 C-6.87831311 -0.62950412 -4.29299643 -1.26264601 0 0 Z " fill="#4A4F92" transform="translate(434,367)"/>
<path d="M0 0 C0.66 0.99 1.32 1.98 2 3 C0.88663905 7.57715056 -1.95222895 10.55120645 -5 14 C-5.6875 12.1875 -5.6875 12.1875 -6 10 C-5.0246803 8.97591432 -4.01801357 7.98165594 -3 7 C-1.85527117 4.71054235 -0.94445698 2.38362951 0 0 Z " fill="#252476" transform="translate(316,337)"/>
<path d="M0 0 C2.64 0 5.28 0 8 0 C8 1.65 8 3.3 8 5 C5.03 4.67 2.06 4.34 -1 4 C-0.67 2.68 -0.34 1.36 0 0 Z " fill="#030370" transform="translate(145,291)"/>
<path d="M0 0 C-0.99 0.495 -0.99 0.495 -2 1 C-2 1.66 -2 2.32 -2 3 C-8.435 3.495 -8.435 3.495 -15 4 C-10.56616154 -0.43383846 -5.91252486 -0.20042457 0 0 Z " fill="#62608E" transform="translate(309,203)"/>
<path d="M0 0 C0.66 0.66 1.32 1.32 2 2 C-4.3583815 4.4566474 -4.3583815 4.4566474 -8 3 C-9.3479743 2.36345658 -10.68596724 1.70394612 -12 1 C-7.99047425 -0.33650858 -4.17983803 -0.20225023 0 0 Z " fill="#13207F" transform="translate(336,192)"/>
<path d="M0 0 C0 0.99 0 1.98 0 3 C-0.66 3 -1.32 3 -2 3 C-2.12375 3.721875 -2.2475 4.44375 -2.375 5.1875 C-3.68539761 11.08428925 -6.05769901 14.5389752 -10 19 C-10.66 18.67 -11.32 18.34 -12 18 C-11.60167969 17.5153125 -11.20335937 17.030625 -10.79296875 16.53125 C-8.02016825 13.02308391 -5.76278497 9.88228813 -4.3125 5.625 C-3 2 -3 2 0 0 Z " fill="#D2E1F8" transform="translate(583,483)"/>
<path d="M0 0 C1.01299606 2.65602626 1.07672553 3.78395707 0.109375 6.5078125 C-0.33921875 7.37148438 -0.7878125 8.23515625 -1.25 9.125 C-1.68828125 9.99382812 -2.1265625 10.86265625 -2.578125 11.7578125 C-4 14 -4 14 -7 16 C-6.05150753 11.25753764 -4.44621549 6.44621549 -1 3 C-0.67 2.01 -0.34 1.02 0 0 Z " fill="#191D6D" transform="translate(447,346)"/>
<path d="M0 0 C0.33 1.32 0.66 2.64 1 4 C-1.125 6.0625 -1.125 6.0625 -4 8 C-7.3125 7.75 -7.3125 7.75 -10 7 C-10 6.01 -10 5.02 -10 4 C-7.98177083 3.54427083 -5.96354167 3.08854167 -3.9453125 2.6328125 C-1.79280036 2.09525572 -1.79280036 2.09525572 0 0 Z " fill="#302E84" transform="translate(421,342)"/>
<path d="M0 0 C1.98 0.99 1.98 0.99 4 2 C3.34 5.63 2.68 9.26 2 13 C0.12815629 9.25631258 -0.23999767 8.1599209 -0.125 4.25 C-0.10695312 3.45078125 -0.08890625 2.6515625 -0.0703125 1.828125 C-0.04710937 1.22484375 -0.02390625 0.6215625 0 0 Z " fill="#78A0E2" transform="translate(187,450)"/>
<path d="M0 0 C0.99 0.66 1.98 1.32 3 2 C3.1875 4.625 3.1875 4.625 3 7 C1.35 7.33 -0.3 7.66 -2 8 C-2.20086443 4.28400809 -2.1519437 3.22791555 0 0 Z " fill="#03027B" transform="translate(367,359)"/>
<path d="M0 0 C-3 2 -3 2 -6 2 C-6 2.66 -6 3.32 -6 4 C-4.35 4 -2.7 4 -1 4 C-3 5 -5 6 -7 7 C-7 5.68 -7 4.36 -7 3 C-7.66 3 -8.32 3 -9 3 C-8.67 2.01 -8.34 1.02 -8 0 C-4.71023192 -1.09658936 -3.28696233 -0.79953138 0 0 Z " fill="#2A1F66" transform="translate(331,340)"/>
<path d="M0 0 C2.583964 0.97627211 3.61306271 2.20382838 5.328125 4.34765625 C5.84890625 4.98832031 6.3696875 5.62898438 6.90625 6.2890625 C7.29296875 6.78277344 7.6796875 7.27648437 8.078125 7.78515625 C7.088125 8.11515625 6.098125 8.44515625 5.078125 8.78515625 C4.748125 7.46515625 4.418125 6.14515625 4.078125 4.78515625 C3.315 4.68203125 2.551875 4.57890625 1.765625 4.47265625 C-1.09246924 3.74151586 -2.07930385 3.01563712 -3.921875 0.78515625 C-1.921875 -0.21484375 -1.921875 -0.21484375 0 0 Z " fill="#313077" transform="translate(306.921875,299.21484375)"/>
<path d="M0 0 C0.75 1.625 0.75 1.625 1 4 C-1.38252013 8.58176948 -3.19910921 10.32527066 -8 12 C-6.85573734 10.186508 -5.70954608 8.37423275 -4.5625 6.5625 C-3.60537109 5.04849609 -3.60537109 5.04849609 -2.62890625 3.50390625 C-1 1 -1 1 0 0 Z " fill="#1C186D" transform="translate(418,181)"/>
<path d="M0 0 C4.77609498 1.64178265 8.79382904 4.26546702 13 7 C12.34 7.66 11.68 8.32 11 9 C9.16136495 7.88368586 7.32920277 6.75670373 5.5 5.625 C4.4790625 4.99851562 3.458125 4.37203125 2.40625 3.7265625 C1.6121875 3.15679688 0.818125 2.58703125 0 2 C0 1.34 0 0.68 0 0 Z " fill="#F0EDF0" transform="translate(187,564)"/>
<path d="M0 0 C0.66 0 1.32 0 2 0 C2 1.32 2 2.64 2 4 C2.66 4 3.32 4 4 4 C3.67 5.65 3.34 7.3 3 9 C2.34 9 1.68 9 1 9 C1 8.34 1 7.68 1 7 C0.34 7 -0.32 7 -1 7 C-1.04254356 5.00045254 -1.04080783 2.99958364 -1 1 C-0.67 0.67 -0.34 0.34 0 0 Z " fill="#E48D15" transform="translate(331,357)"/>
<path d="M0 0 C6.875 3.75 6.875 3.75 8 6 C7.34 6 6.68 6 6 6 C6 7.65 6 9.3 6 11 C4.68 10.34 3.36 9.68 2 9 C2 8.34 2 7.68 2 7 C2.99 7 3.98 7 5 7 C5 6.34 5 5.68 5 5 C4.360625 4.731875 3.72125 4.46375 3.0625 4.1875 C1 3 1 3 0 0 Z " fill="#1D1A65" transform="translate(369,335)"/>
<path d="M0 0 C0.33 0 0.66 0 1 0 C2.60277136 8.81524249 2.60277136 8.81524249 0.1875 13.5625 C-2 16 -2 16 -4 17 C-4.66 16.34 -5.32 15.68 -6 15 C-5.01 14.67 -4.02 14.34 -3 14 C-1.02424785 11.01621104 -0.6531933 8.27378179 -0.375 4.75 C-0.26285156 3.41195313 -0.26285156 3.41195313 -0.1484375 2.046875 C-0.09945313 1.37140625 -0.05046875 0.6959375 0 0 Z " fill="#404085" transform="translate(310,318)"/>
<path d="M0 0 C0.928125 0.20625 1.85625 0.4125 2.8125 0.625 C2.4825 1.615 2.1525 2.605 1.8125 3.625 C-0.4975 3.955 -2.8075 4.285 -5.1875 4.625 C-5.5175 3.635 -5.8475 2.645 -6.1875 1.625 C-3.1875 -0.375 -3.1875 -0.375 0 0 Z " fill="#100F70" transform="translate(372.1875,376.375)"/>
<path d="M0 0 C0.99 0 1.98 0 3 0 C5.67927341 4.01891012 5.15601248 6.24161923 5 11 C4.01 11.495 4.01 11.495 3 12 C3 9.03 3 6.06 3 3 C1.68 3 0.36 3 -1 3 C-0.67 2.01 -0.34 1.02 0 0 Z " fill="#080879" transform="translate(384,349)"/>
<path d="M0 0 C0.33 1.32 0.66 2.64 1 4 C2.65 4.33 4.3 4.66 6 5 C5.01 5.495 5.01 5.495 4 6 C4 8.31 4 10.62 4 13 C0.25474201 9.25474201 0.31090051 5.01729091 0 0 Z " fill="#C4853E" transform="translate(324,347)"/>
<path d="M0 0 C4.29 0 8.58 0 13 0 C13 0.66 13 1.32 13 2 C9.04 2.66 5.08 3.32 1 4 C0.67 2.68 0.34 1.36 0 0 Z " fill="#322063" transform="translate(346,380)"/>
<path d="M0 0 C3.81684226 1.55500981 6.19195732 4.03595495 9 7 C5.04179141 6.43454163 2.3340947 5.19097652 -1 3 C-0.67 2.01 -0.34 1.02 0 0 Z " fill="#0C187B" transform="translate(169,301)"/>
<path d="M0 0 C0.99 0.66 1.98 1.32 3 2 C1.5 4.0625 1.5 4.0625 -1 6 C-3.82406647 6.05928384 -6.20225927 5.55954815 -9 5 C-8.67 4.34 -8.34 3.68 -8 3 C-5.36 3 -2.72 3 0 3 C0 2.01 0 1.02 0 0 Z " fill="#151969" transform="translate(536,537)"/>
<path d="M0 0 C3.91836735 5.2244898 3.91836735 5.2244898 4 8 C2.0625 11.25 2.0625 11.25 0 14 C-0.33 12.68 -0.66 11.36 -1 10 C-0.34 10 0.32 10 1 10 C0.67 6.7 0.34 3.4 0 0 Z " fill="#243287" transform="translate(569,492)"/>
<path d="M0 0 C4.8274799 1.41292095 8.7162359 3.42974154 13 6 C9.86650268 7.04449911 9.01031744 6.93423645 6 6 C6 5.34 6 4.68 6 4 C5.01 4 4.02 4 3 4 C3 3.34 3 2.68 3 2 C2.01 2 1.02 2 0 2 C0 1.34 0 0.68 0 0 Z " fill="#6D6C93" transform="translate(440,221)"/>
<path d="M0 0 C0.33 0 0.66 0 1 0 C1.07654536 4.51617599 1.10228696 8.59085217 0 13 C-0.66 12.67 -1.32 12.34 -2 12 C-1.85962479 10.18706911 -1.71255111 8.3746557 -1.5625 6.5625 C-1.48128906 5.55316406 -1.40007812 4.54382813 -1.31640625 3.50390625 C-1 1 -1 1 0 0 Z " fill="#89888B" transform="translate(483,425)"/>
<path d="M0 0 C0.66 0 1.32 0 2 0 C1.97679687 0.59167969 1.95359375 1.18335938 1.9296875 1.79296875 C1.82588536 6.33801959 1.86291643 9.85940059 4 14 C3.01 14 2.02 14 1 14 C0 13 0 13 -0.09765625 10.05859375 C-0.08605469 8.86363281 -0.07445312 7.66867187 -0.0625 6.4375 C-0.05347656 5.23996094 -0.04445313 4.04242188 -0.03515625 2.80859375 C-0.02355469 1.88175781 -0.01195312 0.95492188 0 0 Z " fill="#1E1D6B" transform="translate(289,318)"/>
<path d="M0 0 C0.99 0.33 1.98 0.66 3 1 C1.02 3.97 1.02 3.97 -1 7 C-2.32 6.67 -3.64 6.34 -5 6 C-3.35 4.02 -1.7 2.04 0 0 Z " fill="#322B7F" transform="translate(403,315)"/>
<path d="M0 0 C0.66 0.99 1.32 1.98 2 3 C0.68 4.65 -0.64 6.3 -2 8 C-3.32 7.34 -4.64 6.68 -6 6 C-4.02 4.02 -2.04 2.04 0 0 Z " fill="#0F187B" transform="translate(243,226)"/>
<path d="M0 0 C2 2 2 2 2.125 4.625 C2.08375 5.40875 2.0425 6.1925 2 7 C0.68 7 -0.64 7 -2 7 C-2 5.02 -2 3.04 -2 1 C-1.34 0.67 -0.68 0.34 0 0 Z " fill="#000372" transform="translate(568,494)"/>
<path d="M0 0 C1.98 0 3.96 0 6 0 C6.33 0.99 6.66 1.98 7 3 C4.03 3.66 1.06 4.32 -2 5 C-1.34 3.35 -0.68 1.7 0 0 Z " fill="#0A0B72" transform="translate(359,380)"/>
<path d="M0 0 C2 0.33333333 4 0.66666667 6 1 C6.33 0.67 6.66 0.34 7 0 C8.66617115 -0.04063832 10.33388095 -0.042721 12 0 C8.71536341 2.18975773 5.79303725 2.99806563 2 4 C1.01 3.01 0.02 2.02 -1 1 C-0.67 0.67 -0.34 0.34 0 0 Z " fill="#180E60" transform="translate(334,337)"/>
<path d="M0 0 C3.53790403 3.69172595 3.59115883 7.09390595 4 12 C3.34 12 2.68 12 2 12 C0.70756464 7.8803623 -0.26252625 4.33168317 0 0 Z " fill="#1B196B" transform="translate(315,308)"/>
<path d="M0 0 C1.24546405 2.49092811 0.7767578 3.41080733 0 6 C-0.66 6 -1.32 6 -2 6 C-2.268125 6.94875 -2.53625 7.8975 -2.8125 8.875 C-4 12 -4 12 -7 14 C-5.53967505 8.68972746 -3.01679014 4.53669968 0 0 Z " fill="#ADC8F6" transform="translate(109,199)"/>
<path d="M0 0 C5.39449293 -0.27429625 8.51925805 -0.36055646 13 3 C10.09905209 4.45047396 8.44027404 3.45356803 5.375 2.5625 C4.37210937 2.27503906 3.36921875 1.98757812 2.3359375 1.69140625 C1.56507813 1.46324219 0.79421875 1.23507813 0 1 C0 0.67 0 0.34 0 0 Z " fill="#181D6C" transform="translate(403,206)"/>
<path d="M0 0 C2.50298434 2.93828597 3.46930939 5.17902761 4 9 C3.01 9 2.02 9 1 9 C-1.09230769 4.56923077 -1.09230769 4.56923077 -0.625 1.6875 C-0.41875 1.130625 -0.2125 0.57375 0 0 Z " fill="#080777" transform="translate(323,354)"/>
<path d="M0 0 C0.99 0.33 1.98 0.66 3 1 C2.46930939 4.82097239 1.50298434 7.06171403 -1 10 C-1.125 3.375 -1.125 3.375 0 0 Z " fill="#010765" transform="translate(121,298)"/>
<path d="M0 0 C0.66 0.33 1.32 0.66 2 1 C1.67 2.32 1.34 3.64 1 5 C0.01 5 -0.98 5 -2 5 C-2.33 6.98 -2.66 8.96 -3 11 C-3.6875 9.375 -3.6875 9.375 -4 7 C-1.72413793 1.72413793 -1.72413793 1.72413793 0 0 Z " fill="#1E2E89" transform="translate(123,293)"/>
<path d="M0 0 C0.66 0.66 1.32 1.32 2 2 C1.8125 4.5 1.8125 4.5 1 7 C0.01 7.66 -0.98 8.32 -2 9 C-3 6 -3 6 -1.5625 2.8125 C-1.046875 1.884375 -0.53125 0.95625 0 0 Z " fill="#10167E" transform="translate(224,249)"/>
<path d="M0 0 C6.4 -0.49230769 6.4 -0.49230769 9.4375 2 C10.2109375 2.99 10.2109375 2.99 11 4 C10.67 4.66 10.34 5.32 10 6 C6.59244728 4.07119658 3.25852365 2.1723491 0 0 Z " fill="#7C99EB" transform="translate(413,162)"/>
<path d="M0 0 C3.79588866 0.54226981 5.47211993 2.20127563 8 5 C7.67 5.99 7.34 6.98 7 8 C5.83035398 6.8572081 4.66435444 5.71068285 3.5 4.5625 C2.8503125 3.92441406 2.200625 3.28632813 1.53125 2.62890625 C0 1 0 1 0 0 Z " fill="#0E1F7F" transform="translate(156,420)"/>
<path d="M0 0 C2.64 0.33 5.28 0.66 8 1 C7.67 1.99 7.34 2.98 7 4 C7.66 4 8.32 4 9 4 C8.67 4.66 8.34 5.32 8 6 C1.125 2.25 1.125 2.25 0 0 Z " fill="#AE713D" transform="translate(340,375)"/>
<path d="M0 0 C0.763125 0.061875 1.52625 0.12375 2.3125 0.1875 C2.6425 1.1775 2.9725 2.1675 3.3125 3.1875 C0.3425 3.1875 -2.6275 3.1875 -5.6875 3.1875 C-2.6875 0.1875 -2.6875 0.1875 0 0 Z " fill="#050679" transform="translate(356.6875,368.8125)"/>
<path d="M0 0 C0.66 0.33 1.32 0.66 2 1 C1.01 1.680625 1.01 1.680625 0 2.375 C-0.99 3.179375 -0.99 3.179375 -2 4 C-2 4.66 -2 5.32 -2 6 C-3.9375 5.625 -3.9375 5.625 -6 5 C-6.33 4.34 -6.66 3.68 -7 3 C-4.69631264 1.93347808 -2.35981813 0.93578995 0 0 Z " fill="#1B2C85" transform="translate(398,163)"/>
<path d="M0 0 C1.90389849 2.85584773 2.69462177 4.9311762 3.625 8.1875 C4.01558594 9.53908203 4.01558594 9.53908203 4.4140625 10.91796875 C4.60742188 11.60503906 4.80078125 12.29210937 5 13 C4.34 12.67 3.68 12.34 3 12 C3 11.34 3 10.68 3 10 C2.34 10 1.68 10 1 10 C0.67 6.7 0.34 3.4 0 0 Z " fill="#23236B" transform="translate(133,363)"/>
<path d="M0 0 C0.33 0 0.66 0 1 0 C1 3.3 1 6.6 1 10 C0.01 10.33 -0.98 10.66 -2 11 C-1.34 7.37 -0.68 3.74 0 0 Z " fill="#9BBDF7" transform="translate(80,268)"/>
<path d="M0 0 C1 3 1 3 0 6 C-2.97 5.505 -2.97 5.505 -6 5 C-2.25 1.125 -2.25 1.125 0 0 Z " fill="#6F6F94" transform="translate(262,221)"/>
<path d="M0 0 C-0.33 0.99 -0.66 1.98 -1 3 C-1.99 3.33 -2.98 3.66 -4 4 C-4.33 4.66 -4.66 5.32 -5 6 C-7.5625 6.625 -7.5625 6.625 -10 7 C-3.18421053 0 -3.18421053 0 0 0 Z " fill="#9BBEF2" transform="translate(195,110)"/>
<path d="M0 0 C0.33 0.99 0.66 1.98 1 3 C0.67 3.66 0.34 4.32 0 5 C-0.66 5 -1.32 5 -2 5 C-2 7.64 -2 10.28 -2 13 C-2.33 13 -2.66 13 -3 13 C-3.4726477 4.80743982 -3.4726477 4.80743982 -1.5 1.4375 C-0.7575 0.7259375 -0.7575 0.7259375 0 0 Z " fill="#464784" transform="translate(321,341)"/>
<path d="M0 0 C0.66 0 1.32 0 2 0 C2 0.99 2 1.98 2 3 C-0.90600261 4.25664978 -2.79604584 5 -6 5 C-5.67 4.01 -5.34 3.02 -5 2 C-3.35 2 -1.7 2 0 2 C0 1.34 0 0.68 0 0 Z " fill="#1B1774" transform="translate(411,311)"/>
<path d="M0 0 C0.66 0 1.32 0 2 0 C2.33 1.65 2.66 3.3 3 5 C1.68 5.33 0.36 5.66 -1 6 C-0.67 4.02 -0.34 2.04 0 0 Z " fill="#F8AB39" transform="translate(376,353)"/>
<path d="M0 0 C2.6875 0.3125 2.6875 0.3125 5 1 C3.68 2.32 2.36 3.64 1 5 C-0.32 4.34 -1.64 3.68 -3 3 C-1.8125 1.4375 -1.8125 1.4375 0 0 Z " fill="#131061" transform="translate(382,347)"/>
<path d="M0 0 C2.97 0 5.94 0 9 0 C9.33 1.32 9.66 2.64 10 4 C7.03 3.67 4.06 3.34 1 3 C0.67 2.01 0.34 1.02 0 0 Z " fill="#272680" transform="translate(410,320)"/>
<path d="M0 0 C0.66 0.33 1.32 0.66 2 1 C2.36923077 7.52307692 2.36923077 7.52307692 0.5 9.9375 C0.005 10.288125 -0.49 10.63875 -1 11 C-1.08927756 7.78600767 -0.8534403 5.0937211 0 2 C0 1.34 0 0.68 0 0 Z " fill="#686490" transform="translate(417,173)"/>
<path d="M0 0 C0.33 1.32 0.66 2.64 1 4 C-0.98 4.99 -2.96 5.98 -5 7 C-3.75023244 3.34683329 -3.32901247 2.21934164 0 0 Z " fill="#162883" transform="translate(336,162)"/>
<path d="M0 0 C0.66 0 1.32 0 2 0 C2.25 2.25 2.25 2.25 2 5 C0 7.3125 0 7.3125 -2 9 C-1.34 6.03 -0.68 3.06 0 0 Z " fill="#D5E6FE" transform="translate(612,416)"/>
<path d="M0 0 C0.99 0 1.98 0 3 0 C2.67 1.65 2.34 3.3 2 5 C1.01 4.67 0.02 4.34 -1 4 C-0.67 2.68 -0.34 1.36 0 0 Z " fill="#E18D1A" transform="translate(336,365)"/>
<path d="M0 0 C4.75 0.875 4.75 0.875 7 2 C6.67 2.99 6.34 3.98 6 5 C3.69 4.01 1.38 3.02 -1 2 C-0.67 1.34 -0.34 0.68 0 0 Z " fill="#151272" transform="translate(430,311)"/>
<path d="M0 0 C0.598125 0.20625 1.19625 0.4125 1.8125 0.625 C1.8125 1.285 1.8125 1.945 1.8125 2.625 C-0.5625 3.25 -0.5625 3.25 -3.1875 3.625 C-3.8475 2.965 -4.5075 2.305 -5.1875 1.625 C-2.1875 -0.375 -2.1875 -0.375 0 0 Z " fill="#413A8D" transform="translate(284.1875,297.375)"/>
<path d="M0 0 C3.78786597 0.5260925 6.17152224 1.38103911 9 4 C9 4.66 9 5.32 9 6 C5.56404834 4.47291037 2.88087546 2.40072955 0 0 Z " fill="#A6A3B5" transform="translate(474,257)"/>
<path d="M0 0 C2.75 0.25 2.75 0.25 5 1 C2.03312999 2.64826111 -0.65626525 3.44271087 -4 4 C-2.3125 1.9375 -2.3125 1.9375 0 0 Z " fill="#9F9FAD" transform="translate(262,226)"/>
</svg>
